<?xml version="1.0" encoding="UTF-8" standalone="no"?>
<svg
   xmlns:svg="http://www.w3.org/2000/svg"
   xmlns="http://www.w3.org/2000/svg"
   version="1.1"
   width="440.85025"
   height="452.38251"
   id="svg3127">
  <defs
     id="defs3129" />
  <g
     transform="translate(-196.71774,-334.74236)"
     id="layer1">
    <path
       d="m 417.14303,781.06236 c 149.2575,-92.54625 216.62125,-224.36125 215.07625,-379.00875 -123.9025,-82.195 -309.29625,-83.1075 -430.1525,0 -1.545,154.6475 64.905,286.4625 215.07625,379.00875"
       id="path14"
       style="fill:#ffffff;fill-opacity:1;fill-rule:evenodd;stroke:none" />
    <path
       d="m 417.13678,775.98861 c 71.3375,-44.6725 123.5875,-98.4425 158.21,-159.455 36.02375,-63.4825 52.99125,-134.9 52.565,-212.1475 -61.06875,-39.88625 -136.99375,-59.99875 -212.54875,-59.99875 -75.11875,0 -149.775,19.8775 -208.98875,59.94875 -0.44,77.44875 16.37375,149.0375 52.4675,212.6425 34.5175,60.82625 86.69625,114.4425 158.295,159.01 z M 582.84303,620.78736 c -35.68875,62.8925 -89.6575,118.19125 -163.4375,163.93875 l -2.255,1.39875 -2.27,-1.39875 c -74.05375,-45.6375 -127.9475,-100.7825 -163.53375,-163.4925 -37.23875,-65.6225 -54.4,-139.43125 -53.6025,-219.21375 l 0.0225,-2.23875 1.8525,-1.2725 c 61.01625,-41.95875 138.195,-62.76625 215.74375,-62.76625 77.9575,0 156.3875,21.0225 219.2375,62.715 l 1.9175,1.2725 0.0238,2.29 c 0.795,79.60375 -16.525,153.25875 -53.69875,218.7675"
       id="path16"
       style="fill:#bfa552;fill-opacity:1;fill-rule:nonzero;stroke:none" />
    <path
       d="m 570.58803,513.47986 c 6.0525,-25.32125 9.33875,-51.605 10.01375,-78.67 -15.45,-10.305 -32.1575,-18.9375 -49.69875,-25.88875 l -257.07875,142.6675 c 12.095,33.72625 29.795,65.28875 53.53375,94.24625 l 243.23,-132.355"
       id="path18"
       style="fill:#2e4f9e;fill-opacity:1;fill-rule:evenodd;stroke:none" />
    <path
       d="m 566.82178,510.62611 c 2.78375,-11.93 4.94375,-23.99 6.49125,-36.15625 1.54875,-12.17125 2.51,-24.64375 2.89875,-37.3925 -6.8675,-4.48125 -14.0375,-8.6625 -21.47,-12.53375 -7.63625,-3.97875 -15.50375,-7.59625 -23.555,-10.85375 l -252.0425,139.8725 c 5.79,15.58 12.79,30.66 21.0425,45.1875 8.175,14.3925 17.5825,28.2725 28.26,41.58875 l 238.375,-129.7125 z m 15.03375,-35.0775 c -1.69125,13.2925 -4.04,26.27875 -7.06375,38.9275 l -0.445,1.86125 -1.69875,0.92375 -243.23,132.355 -3.13125,1.705 -2.25375,-2.75125 c -11.94375,-14.5675 -22.37375,-29.77375 -31.3425,-45.565 -9.14125,-16.09375 -16.7675,-32.76875 -22.935,-49.965 l -1.2325,-3.4375 3.2075,-1.77875 257.07875,-142.6675 1.79875,-0.99875 1.8825,0.74625 c 8.97375,3.555 17.73875,7.54875 26.23625,11.975 8.30625,4.3275 16.41375,9.11125 24.2725,14.3525 l 1.98375,1.32375 -0.06,2.35625 c -0.34,13.635 -1.355,27.19 -3.0675,40.6375"
       id="path20"
       style="fill:#bfa552;fill-opacity:1;fill-rule:nonzero;stroke:none" />
    <path
       d="m 327.35803,645.83486 c 23.74125,28.95625 53.5225,55.30625 89.785,78.605 84.3575,-55.8075 133.67125,-128.24625 153.445,-210.96 l -243.23,132.355"
       id="path22"
       style="fill:#ffffff;fill-opacity:1;fill-rule:evenodd;stroke:none" />
    <path
       d="m 334.02553,647.10986 c 10.97625,12.96375 23.21,25.39 36.74,37.235 14.01625,12.27125 29.45,23.93375 46.34375,34.93625 39.78875,-26.67625 71.56875,-57.1225 95.9475,-90.63875 23.86125,-32.80625 40.6425,-68.5775 50.91,-106.6575 l -229.94125,125.125 z m 31.06625,43.7175 c -15.2725,-13.37125 -28.94125,-27.4775 -41.05875,-42.2575 l -3.30375,-4.03 4.57,-2.4875 243.22875,-132.355 8.5125,-4.6325 -2.24875,9.41125 c -10.215,42.73125 -28.2175,82.76 -54.74625,119.23125 -25.4525,34.9925 -58.7425,66.68875 -100.5225,94.32875 l -2.34625,1.5525 -2.36375,-1.51875 c -18.13875,-11.65375 -34.695,-24.0875 -49.72125,-37.2425"
       id="path24"
       style="fill:#bfa552;fill-opacity:1;fill-rule:nonzero;stroke:none" />
    <path
       d="m 530.90303,408.92111 c -89.38,-35.42125 -200.43625,-27.2 -277.2175,25.88875 0.49625,41.0925 7.02375,80.20625 20.13875,116.77875 l 257.07875,-142.6675"
       id="path26"
       style="fill:#d92c2c;fill-opacity:1;fill-rule:evenodd;stroke:none" />
    <path
       d="m 520.66553,409.67611 c -42.38125,-15.22375 -89.15125,-20.785 -134.45125,-16.555 -46.3925,4.33125 -91.2225,18.93125 -128.1725,43.93 0.3475,19.71125 2.09875,38.93125 5.3175,57.59375 2.9925,17.35625 7.2625,34.27 12.855,50.69 L 520.66553,409.67611 z m -135.2275,-25.13125 c 49.7475,-4.64625 101.21625,2.1925 147.0525,20.35875 l 8.47625,3.35875 -7.97,4.42375 -257.07875,142.66625 -4.4475,2.46875 -1.715,-4.78125 c -6.5825,-18.355 -11.5275,-37.36125 -14.905,-56.94375 -3.43,-19.885 -5.235,-40.32125 -5.4875,-61.235 l -0.0275,-2.28125 1.90125,-1.315 c 38.55125,-26.65625 85.5675,-42.17875 134.20125,-46.72"
       id="path28"
       style="fill:#bfa552;fill-opacity:1;fill-rule:nonzero;stroke:none" />
    <path
       d="m 399.47803,347.28111 c -3.78375,0.16 -6.79,1.39125 -9,3.65625 -2.205,2.2625 -3.3125,5.04375 -3.3125,8.3125 0,1.98375 0.41,3.695 1.25,5.125 0.8425,1.43125 2.0975,2.51375 3.71875,3.3125 1.625,0.8 3.4775,1.175 5.53125,1.09375 1.27625,-0.0513 2.48375,-0.27875 3.59375,-0.6875 1.10875,-0.41 2.27,-1.08875 3.5,-2.03125 -0.2625,1.31125 -0.7125,2.47 -1.375,3.5 -0.66125,1.0275 -1.5525,1.9175 -2.625,2.6875 -1.07625,0.77625 -2.39,1.42 -4,1.90625 -1.6,0.485 -3.76,0.84 -6.46875,1.09375 l 0,4.28125 c 4.34375,-0.21375 7.75375,-0.74375 10.25,-1.59375 2.505,-0.8525 4.68,-2.07875 6.53125,-3.75 1.84875,-1.6675 3.22125,-3.58375 4.09375,-5.71875 0.86875,-2.12625 1.3125,-4.68875 1.3125,-7.6875 0,-2.2275 -0.325,-4.21875 -0.96875,-5.96875 -0.645,-1.75125 -1.61875,-3.27125 -2.90625,-4.53125 -2.19625,-2.1475 -5.2225,-3.165 -9.125,-3 z m 31.34375,0.15625 c -2.435,-0.0937 -4.645,0.325 -6.625,1.28125 -1.995,0.96375 -3.4775,2.2375 -4.4375,3.78125 -0.96,1.54 -1.4375,3.36 -1.4375,5.46875 0,0.69125 0.0763,1.4225 0.21875,2.1875 1.42125,-0.115 2.8475,-0.23 4.28125,-0.34375 -0.085,-0.6275 -0.125,-1.13375 -0.125,-1.5 0,-1.00875 0.25125,-1.9525 0.78125,-2.84375 0.53125,-0.8925 1.27375,-1.59375 2.21875,-2.0625 0.94,-0.465 2.0675,-0.66625 3.34375,-0.625 1.73125,0.0563 3.12125,0.565 4.15625,1.5 1.03,0.93 1.5625,2.035 1.5625,3.3125 0,1.115 -0.3,2.1675 -0.84375,3.15625 -0.75625,1.3725 -2.25125,2.955 -4.5,4.8125 -2.2025,1.82 -4.20125,3.4675 -6,4.875 -1.805,1.4125 -3.4425,2.59375 -4.875,3.5625 l 0,4.25 c 6.48125,-0.0188 12.9875,0.0488 19.46875,0.21875 0.0825,0.3625 0.15375,0.70875 0.25,1.0625 0.91875,0.0375 1.85,0.0888 2.78125,0.125 0.31,-1.82375 0.6275,-3.6475 0.9375,-5.46875 0.31,-1.81625 0.6475,-3.64875 0.96875,-5.46875 -1.37125,-0.0775 -2.7325,-0.15625 -4.09375,-0.21875 -0.0587,0.3325 -0.10125,0.675 -0.15625,1 -0.1475,0.875 -0.34375,1.46375 -0.5625,1.8125 -0.2225,0.35625 -0.50375,0.60875 -0.8125,0.71875 -0.31125,0.11125 -1.04125,0.1275 -2.1875,0.0937 -2.3625,-0.07 -4.73125,-0.12 -7.09375,-0.15625 4.9175,-2.995 8.19,-5.14125 9.8125,-6.46875 1.62375,-1.3275 2.81125,-2.73 3.53125,-4.1875 0.64,-1.2975 0.96875,-2.71 0.96875,-4.25 0,-1.52125 -0.46625,-3.01 -1.375,-4.4375 -0.91625,-1.44125 -2.27875,-2.62625 -4.09375,-3.59375 -1.80125,-0.96125 -3.83125,-1.5075 -6.0625,-1.59375 z m -57.03125,1.84375 c -0.6925,0.0775 -1.40125,0.14125 -2.09375,0.21875 -0.72875,0.45 -1.5,0.85625 -2.34375,1.21875 -1.51875,0.6525 -2.96375,1.2125 -4.3125,1.65625 -0.9075,0.2975 -2.1925,0.63625 -3.875,1.03125 l 0,4.25 c 1.9575,-0.2625 3.9375,-0.50625 5.90625,-0.75 l 0,8.53125 0,8.5625 c 0,1.00875 -0.0763,1.66875 -0.21875,2 -0.14375,0.3325 -0.3875,0.5725 -0.6875,0.75 -0.29625,0.17625 -0.95,0.3625 -2,0.5 -1.0025,0.13125 -2.01,0.26125 -3,0.40625 l 0,4.21875 c 6.05125,-0.8375 12.12375,-1.51 18.1875,-2.09375 l 0,-4.21875 c -0.99125,0.0888 -1.9775,0.15625 -2.96875,0.25 -0.87,0.0838 -1.4925,0.0888 -1.8125,-0.0312 -0.32375,-0.12 -0.52,-0.37 -0.65625,-0.71875 -0.0788,-0.1975 -0.125,-0.81375 -0.125,-1.84375 l 0,-11.96875 0,-11.96875 z m 90.40625,1.28125 c -1.19607,0.0225 -2.28406,0.13859 -3.21875,0.3125 -2.49625,0.4625 -4.63875,1.405 -6.5,2.8125 -1.8625,1.40625 -3.23,3.11375 -4.09375,5.09375 -0.86625,1.98625 -1.3125,4.43875 -1.3125,7.375 0,2.175 0.32375,4.14875 0.96875,5.90625 0.64375,1.75375 1.62625,3.2775 2.90625,4.625 2.205,2.32125 5.2575,3.67625 9.15625,4.1875 3.765,0.49375 6.7375,-0.0362 8.96875,-1.71875 2.2075,-1.66625 3.3125,-4.08125 3.3125,-7.3125 0,-1.94 -0.435,-3.75 -1.28125,-5.375 -0.8475,-1.625 -2.06625,-3.005 -3.6875,-4.125 -1.61125,-1.11 -3.445,-1.82 -5.5,-2.09375 -1.29875,-0.1725 -2.52875,-0.1425 -3.625,0.0937 -1.09875,0.23625 -2.2575,0.7575 -3.5,1.5 0.26375,-1.23375 0.7075,-2.31 1.375,-3.21875 0.66875,-0.9075 1.55375,-1.65875 2.625,-2.25 1.06375,-0.58625 2.37625,-1.01875 4,-1.21875 1.61,-0.19875 3.78375,-0.14625 6.46875,0.15625 l 0,-4.21875 c -2.70781,-0.37422 -5.06904,-0.56877 -7.0625,-0.53125 z m -64.53125,1.5625 c 1.4675,-0.0613 2.69125,0.44 3.65625,1.46875 0.9675,1.0325 1.4375,2.37375 1.4375,4.0625 0,1.145 -0.2225,2.1825 -0.65625,3.09375 -0.43625,0.91375 -1.03375,1.6325 -1.8125,2.125 -0.78375,0.49625 -1.71125,0.74125 -2.75,0.78125 -1.45625,0.055 -2.65125,-0.3975 -3.59375,-1.40625 -0.94375,-1.01125 -1.4375,-2.39625 -1.4375,-4.125 0,-1.72375 0.48875,-3.14 1.46875,-4.25 0.9775,-1.105 2.19625,-1.68875 3.6875,-1.75 z m 61.5625,12.71875 c 0.24328,6.3e-4 0.49063,0.0303 0.75,0.0625 1.46875,0.185 2.68,0.87375 3.625,2.03125 0.9525,1.16875 1.4375,2.59 1.4375,4.28125 0,1.6875 -0.4925,2.97875 -1.46875,3.875 -0.98,0.89875 -2.215,1.225 -3.71875,1.03125 -1.46875,-0.19 -2.6875,-0.8525 -3.65625,-2 -0.96375,-1.1425 -1.4375,-2.52 -1.4375,-4.15625 0,-1.115 0.21875,-2.085 0.65625,-2.90625 0.43375,-0.81 1.06875,-1.40375 1.84375,-1.78125 0.59063,-0.28781 1.23891,-0.43937 1.96875,-0.4375 z m -222.6875,78.03125 -7.4375,9.96875 0.71875,10.3125 -1.09375,2.65625 -1.53125,-2.40625 -1.1875,-10.28125 -9.125,-8.4375 3.65625,32.1875 10.09375,9.4375 8.21875,-11.125 -2.3125,-32.3125 z m -5.90625,43.4375 -0.125,0.15625 0.28125,0 -0.15625,-0.15625 z m 361.84375,-42.96875 -2.3125,32.28125 8.21875,11.125 10.09375,-9.40625 3.65625,-32.1875 -9.125,8.4375 -1.21875,10.28125 -1.53125,2.375 -1.0625,-2.625 0.71875,-10.3125 -7.4375,-9.96875 z m 5.90625,43.40625 -0.15625,0.15625 0.28125,0.0312 -0.125,-0.1875 z m -358.28125,2.6875 -5.65625,11.0625 2.40625,10.0625 -0.625,2.78125 -1.90625,-2.125 -2.90625,-9.9375 -10.375,-6.8125 8.90625,31.125 11.53125,7.6875 6.25,-12.375 -7.625,-31.46875 z m 1.375,43.84375 -0.0937,0.15625 0.25,-0.0625 -0.15625,-0.0937 z m 347.40625,-43.375 -7.59375,31.46875 6.25,12.3125 11.53125,-7.625 8.90625,-31.125 -10.40625,6.8125 -2.875,9.9375 -1.90625,2.09375 -0.625,-2.75 2.40625,-10.0625 -5.6875,-11.0625 z m -1.34375,43.78125 -0.1875,0.125 0.28125,0.0937 -0.0937,-0.2187 z m -335.84375,0.8125 -4.84375,11.4375 3.125,9.84375 -0.40625,2.84375 -2.0625,-1.96875 -3.59375,-9.6875 -10.875,-6.03125 11.1875,30.375 12.09375,6.78125 5.3125,-12.78125 -9.9375,-30.8125 z m 4.625,43.59375 -0.0937,0.1875 0.25,-0.0937 -0.15625,-0.0937 z m 321,-43.15625 -9.9375,30.8125 5.3125,12.75 12.0625,-6.71875 11.21875,-30.375 -10.875,6 -3.625,9.71875 -2.0625,1.9375 -0.40625,-2.8125 3.15625,-9.84375 -4.84375,-11.46875 z m -4.625,43.5625 -0.1875,0.125 0.28125,0.0937 -0.0937,-0.21875 z m -305.15625,-1.5 -3.3125,12 4.375,9.34375 -0.0312,2.875 -2.3125,-1.6875 -4.8125,-9.15625 -11.5625,-4.59375 15,28.71875 12.84375,5.15625 3.625,-13.34375 -13.8125,-29.3125 z m 10.1875,42.65625 -0.0625,0.1875 0.25,-0.125 -0.1875,-0.0625 z m 283.71875,-42.1875 -13.8125,29.28125 3.65625,13.34375 12.84375,-5.15625 15,-28.6875 -11.5625,4.59375 -4.8125,9.125 -2.3125,1.6875 -0.0312,-2.84375 4.375,-9.375 -3.34375,-11.96875 z m -10.15625,42.625 -0.21875,0.0937 0.28125,0.125 -0.0625,-0.21875 z m -262.6875,-3.40625 -1.6875,12.3125 5.59375,8.6875 0.3125,2.84375 -2.5,-1.375 -6,-8.40625 -12.0625,-3 18.71875,26.40625 13.40625,3.40625 1.8125,-13.71875 -17.59375,-27.15625 z m 15.78125,40.875 -0.0312,0.21875 0.21875,-0.15625 -0.1875,-0.0625 z m 236.03125,-40.4375 -17.625,27.1875 1.84375,13.71875 13.40625,-3.40625 18.6875,-26.4375 -12.0625,3 -6,8.4375 -2.5,1.34375 0.34375,-2.8125 5.59375,-8.71875 -1.6875,-12.3125 z m -15.78125,40.90625 -0.21875,0.0625 0.25,0.15625 -0.0312,-0.21875 z m -208.84375,-3.75 -0.375,12.40625 6.5,8.0625 0.625,2.78125 -2.65625,-1.09375 -6.84375,-7.71875 -12.3125,-1.71875 21.40625,24.3125 13.6875,1.9375 0.375,-13.8125 -20.40625,-25.15625 z m 20.03125,38.96875 0,0.21875 0.21875,-0.1875 -0.21875,-0.0312 z m 177.40625,-38.53125 -20.40625,25.15625 0.375,13.84375 13.6875,-1.96875 21.40625,-24.28125 -12.3125,1.6875 -6.875,7.75 -2.625,1.09375 0.625,-2.78125 6.5,-8.0625 -0.375,-12.4375 z m -20.03125,39 -0.21875,0.0312 0.21875,0.1875 0,-0.21875 z m -148.125,-6.53125 1.1875,12.375 7.4375,7.1875 1,2.65625 -2.75,-0.75 -7.78125,-6.8125 -12.4375,-0.125 24.28125,21.40625 13.8125,0.21875 -1.375,-13.75 -23.375,-22.40625 z m 24.75,36.15625 0.0312,0.21875 0.21875,-0.21875 -0.25,0 z m 114.125,-35.6875 -23.40625,22.375 -1.375,13.78125 13.84375,-0.21875 24.28125,-21.40625 -12.4375,0.125 -7.78125,6.8125 -2.75,0.75 0.96875,-2.6875 7.46875,-7.15625 1.1875,-12.375 z m -24.78125,36.15625 -0.21875,0 0.1875,0.1875 0.0312,-0.1875 z m -81.09375,-7.59375 2.375,12.1875 8.09375,6.4375 1.25,2.5625 -2.8125,-0.46875 -8.40625,-6.03125 -12.375,1.0625 26.21875,18.96875 13.8125,-1.09375 -2.71875,-13.59375 -25.4375,-20.03125 z m 28.15625,33.625 0.0312,0.1875 0.15625,-0.21875 -0.1875,0.0312 z m 44.71875,-33.1875 -25.4375,20.0625 -2.71875,13.5625 13.8125,1.125 26.21875,-19 -12.375,-1.0625 -8.40625,6.03125 -2.8125,0.5 1.25,-2.59375 8.09375,-6.40625 2.375,-12.21875 z m -28.15625,33.625 -0.1875,-0.0312 0.15625,0.25 0.0312,-0.21875 z m -7.5,-0.71875 -11.4375,8.90625 11.125,8.65625 11.46875,-8.90625 -11.15625,-8.65625 z"
       id="path30"
       style="fill:#bfa552;fill-opacity:1;fill-rule:evenodd;stroke:none" />
    <path
       d="m 317.99553,432.35486 c 4.76625,0 9.2075,0.9525 13.38,2.58 4.36375,1.865 8.175,4.48625 11.4325,7.6625 3.29375,3.25125 5.87375,7.18625 7.62,11.42625 1.74625,4.13625 2.74,8.62125 2.74,13.4225 0,4.80625 -0.99375,9.3675 -2.74,13.41875 -1.74625,4.32625 -4.32625,8.255 -7.62,11.43375 -3.2575,3.2575 -7.06875,5.87375 -11.4325,7.74 -4.1725,1.745 -8.61375,2.62 -13.38,2.62 -4.6825,0 -9.2475,-0.875 -13.41875,-2.62 -4.24625,-1.86625 -8.17625,-4.4825 -11.43125,-7.74 -3.17625,-3.17875 -5.875,-7.1075 -7.62125,-11.43375 -1.74875,-4.05125 -2.74,-8.6125 -2.74,-13.41875 0,-4.80125 0.99125,-9.28625 2.74,-13.4225 1.74625,-4.24 4.445,-8.175 7.62125,-11.42625 3.255,-3.17625 7.185,-5.7975 11.43125,-7.6625 4.17125,-1.6275 8.73625,-2.58 13.41875,-2.58"
       id="path64"
       style="fill:#2e4f9e;fill-opacity:1;fill-rule:evenodd;stroke:none" />
    <path
       d="m 318.00928,433.96861 c -1.07375,0 -2.07375,0.0113 -3.1875,0.0937 -0.8725,0.11625 -1.7575,0.2275 -2.59375,0.34375 0.205,0.2025 0.46,0.4525 0.65625,0.53125 0.44,0.23875 0.755,0.43 1.1875,0.78125 0.4375,0.2025 0.8775,0.3325 1.4375,0.53125 0.43375,0.23625 0.85375,0.44375 1.40625,0.5625 0.95625,0 1.8275,0.10125 2.9375,0.21875 0.87625,0.0863 1.91125,0.19125 2.90625,0.3125 1.07125,0.11625 2.195,0.3175 3.1875,0.4375 1.0725,0.19375 2.135,0.44125 3.25,0.5625 l 4.125,-0.65625 c -2.26,-1.19625 -4.68625,-2.07375 -7.1875,-2.75 -2.62375,-0.63375 -5.30625,-0.96875 -8.125,-0.96875 z m -1.1875,4.46875 c -0.67375,0.4375 -1.57,0.98 -2.4375,1.65625 -0.75375,0.51125 -1.61875,1.2 -2.375,1.84375 -0.755,0.6725 -1.42625,1.1675 -2.0625,1.84375 -0.43375,0.555 -0.9925,1.0725 -1.1875,1.625 0.195,0.75625 0.42625,1.62125 0.75,2.5 0.3175,0.87 0.63375,1.8825 1.1875,2.75 0.32,0.88 0.87625,1.745 1.3125,2.5 0.44125,0.75625 0.97125,1.5175 1.40625,2.3125 l 14.21875,2.25 5.59375,-6.75 c -0.11625,-0.63375 -0.2125,-1.435 -0.40625,-2.1875 -0.24125,-0.755 -0.5875,-1.5 -0.90625,-2.375 -0.5525,-0.99375 -0.9775,-2.07875 -1.53125,-3.1875 -0.63875,-1.19 -1.29875,-2.38125 -1.9375,-3.375 -0.99375,-0.195 -1.99125,-0.32375 -2.9375,-0.4375 -0.99875,-0.2025 -2.01375,-0.31625 -3,-0.4375 -0.95625,-0.11625 -1.88125,-0.19125 -2.875,-0.3125 -0.8725,-0.11625 -1.82125,-0.21875 -2.8125,-0.21875 z m -21.8125,4.65625 -0.125,0.125 c -0.235,0.23625 -0.4125,0.32375 -0.53125,0.5625 -3.06125,3.06 -5.46625,6.5475 -7.21875,10.5625 -1.5475,3.73125 -2.47125,7.62375 -2.59375,11.90625 0.315,-0.4325 0.62875,-0.78375 1.0625,-1.21875 0.43625,-0.52125 0.875,-0.97625 1.3125,-1.53125 0.12125,-0.1225 0.2375,-0.295 0.4375,-0.53125 0.1175,-0.1225 0.2225,-0.2 0.34375,-0.3125 0.19625,-0.87875 0.51875,-1.7675 0.875,-2.84375 0.44,-1.11 0.97875,-2.275 1.53125,-3.46875 0.75875,-1.67 1.62125,-3.395 2.5,-5.0625 0.99,-1.63125 1.83875,-3.12875 2.46875,-4.125 0,-0.31625 -0.0625,-0.6425 -0.0625,-1 l 0,-1.1875 0,-1.0625 0,-0.8125 z m 12.3125,3 c -0.87375,0.0763 -1.955,0.1875 -3.0625,0.1875 -1.0725,0.2375 -2.2975,0.325 -3.375,0.5625 -0.87,0.11875 -1.74625,0.3325 -2.5,0.53125 -0.67625,0.12 -1.32,0.32875 -1.875,0.53125 -0.635,0.985 -1.5075,2.44 -2.375,4.1875 -0.87375,1.51 -1.7425,3.25125 -2.5,5 -0.43875,0.99375 -0.8775,1.86375 -1.3125,2.8125 -0.36,0.7975 -0.56,1.55875 -0.875,2.3125 0.315,0.44 0.515,1.055 0.875,1.84375 0.31375,0.63625 0.7525,1.53125 1.1875,2.28125 0.51375,0.8775 1.0775,1.75125 1.75,2.625 0.6325,0.75 1.3075,1.41375 2.0625,1.96875 0.42875,-0.23625 1.06875,-0.3675 1.625,-0.5625 0.75375,-0.2425 1.42875,-0.32375 2.0625,-0.5625 1.11375,-0.19625 2.31,-0.53375 3.625,-0.96875 1.0725,-0.2 2.31125,-0.52625 3.5,-0.84375 l 6,-11.65625 c -0.5525,-0.675 -1.1275,-1.5675 -1.5625,-2.4375 -0.43875,-0.75625 -0.965,-1.635 -1.40625,-2.625 -0.43125,-0.8775 -0.77625,-1.7325 -1.09375,-2.6875 -0.315,-0.87 -0.63125,-1.6275 -0.75,-2.5 z m 38.96875,3.375 -0.1875,4.75 c 0.0788,0.125 -0.0163,0.0125 0.0625,0.25 0,0.1225 0.004,0.11 0.125,0.1875 0.55375,1.43375 1.42875,3.30625 2.0625,5.6875 0.55625,2.3075 1.12125,5.34875 1,9.15625 0.12125,0.19625 0.195,0.43375 0.3125,0.875 0.12,0.31875 0.32375,0.65375 0.4375,1.09375 0.23875,0.43125 0.325,0.85 0.5625,1.28125 0.12,0.2375 0.195,0.5775 0.3125,0.8125 0.2375,-0.875 0.315,-1.75875 0.4375,-2.75 0.1225,-1.115 0.125,-2.185 0.125,-3.375 0,-3.2975 -0.5675,-6.53625 -1.4375,-9.59375 -0.8725,-2.94125 -2.19,-5.75875 -3.8125,-8.375 z m -11.78125,2.625 -5.75,6.84375 1.9375,12.875 c 2.18625,0.95 4.1875,2.17 5.8125,3.125 1.62625,1.1125 2.92125,2.07875 4.03125,2.75 0.64,-0.55125 1.25875,-1.11 1.9375,-1.75 0.62875,-0.6725 1.43375,-1.305 2.1875,-2.0625 0.5525,-0.5525 1.07,-1.11625 1.625,-1.75 0.55375,-0.66875 1.00125,-1.1675 1.4375,-1.84375 0.0788,-3.81125 -0.24125,-6.7775 -0.875,-9.15625 -0.55375,-2.31125 -1.2925,-4.16625 -1.96875,-5.59375 -0.63,-0.6375 -1.3925,-1.17375 -2.0625,-1.5 -0.75375,-0.55125 -1.655,-0.86875 -2.53125,-1.0625 -0.87375,-0.35875 -1.72875,-0.575 -2.71875,-0.8125 -0.95125,-0.0788 -2.0725,-0.0625 -3.0625,-0.0625 z m -28.3125,17.53125 c -0.955,0.19625 -2.0625,0.515 -3.25,0.875 -1.07,0.20125 -2.31,0.52875 -3.5,0.96875 -0.86875,0.11375 -1.48375,0.33125 -2.15625,0.53125 -0.51875,0.24 -1.1975,0.3225 -1.75,0.4375 -0.31625,0.67375 -0.655,1.4225 -0.96875,2.0625 -0.36125,0.7525 -0.675,1.62625 -0.875,2.5 -0.35125,0.99 -0.545,2.12625 -0.78125,3 -0.31625,1.1875 -0.4525,2.25375 -0.53125,3.125 0.51625,0.8775 1.3075,2.08 2.1875,3.3125 0.9475,1.1875 2.05375,2.3675 3.125,3.5625 1.11375,0.98875 2.07875,1.97 3.1875,2.71875 0.875,0.7625 1.87375,1.44375 2.75,1.875 0.95,-0.23625 1.8125,-0.3625 2.6875,-0.5625 0.87375,-0.315 1.75375,-0.4175 2.625,-0.65625 0.8775,-0.32125 1.74625,-0.51125 2.625,-0.75 0.755,-0.31125 1.62,-0.56 2.375,-0.875 l 1.5625,-12.625 -9.3125,-9.5 z m 23.75,3.5625 -12.8125,6.125 -1.625,12.75 c 0.635,0.55 1.2875,0.99375 1.84375,1.4375 0.6325,0.43375 1.40875,0.87375 2.28125,1.3125 0.7525,0.31375 1.7,0.75875 2.8125,1.1875 1.06625,0.4375 2.24875,0.87125 3.5625,1.1875 0.43375,-0.0788 0.79625,-0.33125 1.1875,-0.53125 l 0.125,0 c 1.74875,-0.87125 3.615,-1.74625 5.5625,-2.9375 1.865,-1.12 3.82125,-2.4075 5.5625,-4.03125 l 1.3125,-10.5625 c -0.08,0 -0.0138,0.0788 -0.0937,0 -1.11625,-0.795 -2.405,-1.75875 -4.15625,-2.75 -1.51125,-1.11125 -3.5,-2.19625 -5.5625,-3.1875 z m -41.59375,9.9375 c 0.755,1.4325 1.60125,2.85 2.59375,4.15625 0.9875,1.31375 2.21375,2.72 3.40625,3.90625 1.30875,1.4275 2.84,2.60375 4.34375,3.71875 1.43375,0.98625 3.05375,1.9675 4.5625,2.71875 0,-0.0775 0.0163,-0.3175 -0.0625,-0.4375 -0.11625,-0.31625 -0.13,-0.51875 -0.25,-0.875 l 0,-0.21875 c -0.1225,0 -0.125,-0.0937 -0.125,-0.0937 -0.9475,-0.51125 -1.94375,-1.215 -2.9375,-1.96875 -1.06625,-0.87375 -2.2575,-1.8675 -3.25,-2.9375 -1.1925,-1.23 -2.29,-2.40375 -3.28125,-3.71875 -0.95375,-1.1825 -1.7325,-2.385 -2.40625,-3.375 -0.31875,-0.1175 -0.60875,-0.1925 -0.96875,-0.3125 -0.1975,-0.125 -0.515,-0.2325 -0.875,-0.3125 -0.195,0 -0.45125,-0.125 -0.53125,-0.125 -0.115,0 -0.0962,-0.125 -0.21875,-0.125 z m 51.09375,7.875 c -1.745,1.625 -3.715,3.0575 -5.78125,4.125 -1.9825,1.19375 -3.825,2.0625 -5.65625,2.9375 l -0.125,0.125 c -0.55625,0.2375 -1.075,0.43375 -1.4375,0.75 l -0.9375,1.28125 c 3.01125,-0.75125 5.85375,-1.81875 8.46875,-3.25 2.82125,-1.505 5.44625,-3.47125 7.75,-5.78125 0,-0.0775 0.0713,-0.0675 0.1875,-0.1875 l -0.96875,0 -1.5,0 z"
       id="path66"
       style="fill:#ffffff;fill-opacity:1;fill-rule:evenodd;stroke:none" />
    <path
       d="m 524.25928,446.43736 -1.5,0.84375 -14.03125,7.84375 -1.5,0.84375 0.84375,1.53125 1.25,2.21875 0.84375,1.5 1.5,-0.84375 0.9375,-0.53125 c 0.74125,-0.415 1.34625,-0.71375 1.8125,-0.875 0.23625,-0.0813 0.23125,-0.13875 0.28125,-0.125 0.0625,0.0163 -0.0113,0.0525 0.125,0.21875 0.32375,0.3875 0.6725,0.92625 1.0625,1.625 l 13.90625,24.875 c 0.3375,0.60125 0.60375,1.055 0.75,1.375 10e-4,0.005 -0.002,0.0288 0,0.0312 -0.0937,0.0638 -0.23,0.12625 -0.375,0.21875 -0.45875,0.2925 -0.9725,0.595 -1.53125,0.90625 l -11.3125,6.3438 c -0.6475,0.36125 -1.19,0.66375 -1.625,0.875 -0.15625,0.075 -0.27625,0.14375 -0.375,0.1875 -0.007,-0.0113 -0.0238,-0.0512 -0.0312,-0.0625 -0.195,-0.29125 -0.45125,-0.7225 -0.78125,-1.3125 l -13.75,-24.53125 c -0.4313,-0.77125 -0.7563,-1.40375 -0.9688,-1.84375 -0.0962,-0.1975 -0.17375,-0.335 -0.21875,-0.4375 0.08,-0.0813 0.22375,-0.195 0.4375,-0.34375 0.34125,-0.23625 0.825,-0.5325 1.4375,-0.875 l 1.03125,-0.5625 1.5,-0.84375 -0.84375,-1.5 -1.25,-2.21875 -0.84375,-1.53125 -1.5,0.84375 -13.90625,7.8125 -1.5,0.84375 0.84375,1.5 1.21875,2.21875 0.84375,1.5 1.53125,-0.84375 0.78125,-0.46875 c 0.76,-0.42625 1.39125,-0.7175 1.84375,-0.875 0.2275,-0.0813 0.20625,-0.13625 0.25,-0.125 0.0788,0.02 -0.045,0.0512 0.0937,0.21875 0.31625,0.37875 0.69125,0.935 1.09375,1.65625 l 13.90625,24.875 c 0.3525,0.63 0.5925,1.1225 0.71875,1.53125 0.0738,0.24 0.1025,0.39625 0.0937,0.4375 0,0.004 -0.04,0.075 -0.15625,0.1875 -0.25375,0.24375 -0.66125,0.51625 -1.1875,0.8125 l -1.25,0.6875 -1.5,0.84375 0.84375,1.5 1.25,2.21875 0.84375,1.53125 1.5,-0.84375 25.625,-14.34375 c 1.36125,-0.7625 2.51875,-1.39625 3.46875,-1.84375 0.89875,-0.425 1.6,-0.7 2.125,-0.84375 0.44375,-0.115 0.99125,-0.17375 1.625,-0.15625 0.69625,0.0175 1.45625,0.13125 2.3125,0.3125 0.8125,0.17625 1.64125,0.50625 2.46875,0.96875 0.845,0.47125 1.715,1.09125 2.625,1.90625 l 1.34385,1.1875 1.15625,-1.34375 1.78125,-2.15625 1.09375,-1.28125 -1.28125,-1.125 -8.1875,-7.09375 -0.90625,-0.8125 -1.0625,0.59375 -1.4375,0.8125 c -0.47625,0.26625 -0.865,0.44875 -1.1875,0.53125 -0.1525,0.04 -0.23875,0.035 -0.25,0.0312 l -0.0312,0 c -0.0263,-0.007 -0.125,-0.10625 -0.28125,-0.28125 -0.285,-0.32375 -0.6075,-0.7925 -0.96875,-1.4375 l -14.0625,-25.15625 -0.0312,0 c -0.3525,-0.6325 -0.57625,-1.1375 -0.6875,-1.53125 -0.0181,-0.0644 -0.065,-0.0744 -0.0937,-0.0625 l 0,-0.0312 c 0.007,-0.0188 0.1175,-0.0987 0.34375,-0.28125 0.3675,-0.295 0.89625,-0.64 1.59375,-1.03125 l 0.875,-0.5 1.53125,-0.84375 -0.84375,-1.5 -1.25,-2.21875 -0.8439,-1.53125 z m -61.71875,34.5625 -1.03125,0.59375 -4.3125,2.40625 -1.03125,0.59375 0.15625,1.15625 5.53125,36.5 c 0.1175,0.7625 0.20625,1.4375 0.25,2.03125 0.04,0.51625 0.0525,0.86625 0.0312,1.03125 -0.0213,0.17125 -0.07,0.3275 -0.125,0.46875 -0.0437,0.11125 -0.11,0.21 -0.1875,0.3125 l -0.0312,0.0312 c -0.055,0.0738 -0.17125,0.19 -0.375,0.34375 -0.27,0.205 -0.6275,0.44375 -1.0625,0.6875 l -1.5,0.84375 0.84375,1.5 1.21875,2.1875 0.84375,1.53125 1.5,-0.84375 10.875,-6.09375 1.5,-0.84375 -0.84375,-1.5 -1.21875,-2.21875 -0.78125,-1.40625 -1.46875,0.71875 c -0.0863,0.0412 -0.2675,0.125 -0.5625,0.28125 -0.24375,0.12875 -0.4775,0.2575 -0.6875,0.375 -0.2825,0.15875 -0.515,0.26125 -0.71875,0.34375 -0.12125,0.0487 -0.21625,0.09 -0.25,0.0937 -0.045,0.005 -0.075,0.002 -0.0937,0 -0.006,0 -0.0175,0.005 -0.0312,0 -0.002,-0.001 -0.0288,0 -0.0312,0 -0.004,-0.005 0.0125,-0.04 0,-0.0625 -0.0138,-0.025 -0.0475,-0.1025 -0.0937,-0.28125 -0.0775,-0.29875 -0.1475,-0.67125 -0.21875,-1.09375 l -1.40625,-8.28125 11.0625,-6.1875 5.4375,4.875 c 0.6275,0.56875 1.10375,1.035 1.4375,1.375 0.205,0.2075 0.345,0.33375 0.40625,0.40625 -0.005,0.0149 -0.0215,0.0427 -0.0312,0.0625 -0.005,-0.008 -0.035,0.009 -0.0625,0.0312 -0.17875,0.13875 -0.4175,0.2825 -0.75,0.46875 l -0.0312,0 c -0.2175,0.12 -0.4275,0.265 -0.65625,0.40625 -0.27625,0.17 -0.4975,0.29875 -0.65625,0.40625 l -1.3125,0.90625 0.78125,1.375 1.21875,2.1875 0.84375,1.53125 1.5,-0.84375 12.96875,-7.28125 1.5,-0.84375 -0.84375,-1.5 -1.21875,-2.1875 -0.84375,-1.5 -1.5,0.84375 -0.5625,0.3125 c -0.315,0.17625 -0.605,0.29125 -0.875,0.34375 -0.2225,0.0437 -0.44625,0.0387 -0.625,0 l -0.0312,0 c -0.225,-0.045 -0.52625,-0.2025 -0.90625,-0.4375 -0.4816,-0.2986 -1.0491,-0.7261 -1.68785,-1.2811 l -28.34375,-24.09375 -0.90625,-0.78125 z m 1.65625,13.0625 8.9375,7.75 -6.96875,3.90625 -1.96875,-11.65625 z m -32,6.53125 c -0.98941,-8.2e-4 -2.02,0.10062 -3.0625,0.3125 -0.0125,0.002 -0.02,-0.001 -0.0312,0 l 0,0.0312 c -1.12,0.21125 -2.51125,0.66125 -4.1875,1.40625 -1.635,0.72625 -3.555,1.7225 -5.78125,2.96875 l -14.375,8.0625 -1.5,0.84375 0.84375,1.5 1.21875,2.21875 0.84375,1.5 1.53125,-0.84375 0.84375,-0.46875 c 0.58,-0.32625 1.06125,-0.59 1.4375,-0.75 0.28625,-0.12125 0.48125,-0.18 0.5625,-0.1875 l 0.0312,0 c 0.0487,-0.006 0.0937,-0.007 0.125,0 0.0188,0.004 0.015,0.0188 0.0312,0.0312 l 0.0625,0.0312 c 0.0337,0.0225 0.1325,0.14 0.28125,0.34375 0.21875,0.3025 0.46125,0.70125 0.75,1.21875 l 13.9375,24.90625 c 0.30625,0.5475 0.545,0.9975 0.6875,1.34375 0.0987,0.23875 0.1475,0.42 0.15625,0.53125 0.002,0.0688 0.009,0.12375 0,0.15625 l -0.0312,-0.0312 c -0.0113,0.0425 -0.015,0.1225 -0.0625,0.1875 -0.05,0.07 -0.19875,0.2 -0.4375,0.375 -0.31625,0.2325 -0.765,0.50625 -1.3125,0.8125 l -0.84375,0.46875 -1.53125,0.84375 0.875,1.5 1.21875,2.1875 0.84375,1.53125 1.5,-0.84375 14.09375,-7.90625 1.5,-0.84375 -0.84375,-1.5 -1.21875,-2.1875 -0.84375,-1.5 -1.53125,0.84375 -1.25,0.6875 c -0.47,0.26125 -0.87375,0.48875 -1.21875,0.625 -0.18875,0.0738 -0.2875,0.0937 -0.3125,0.0937 l -0.0312,0 c -0.0163,0 -0.0412,0.006 -0.0625,0 -0.085,-0.0337 -0.17,-0.10375 -0.28125,-0.1875 -0.0425,-0.0325 -0.1575,-0.195 -0.34375,-0.46875 -0.265,-0.3875 -0.58625,-0.9025 -0.9375,-1.53125 l -4.37505,-7.8436 5.125,-2.875 c 1.97875,-1.1075 3.64,-2.1475 4.96875,-3.15625 1.40125,-1.065 2.48375,-2.1075 3.25,-3.125 0.77875,-1.02375 1.4025,-2.17375 1.84375,-3.40625 0.43875,-1.22625 0.70375,-2.535 0.8125,-3.9375 0.10125,-1.225 0.0175,-2.445 -0.28125,-3.6875 -0.29,-1.2075 -0.7975,-2.42875 -1.46875,-3.625 -0.785,-1.40375 -1.68,-2.5825 -2.71875,-3.53125 -1.0575,-0.9675 -2.25375,-1.6875 -3.59375,-2.1875 -1.2925,-0.48875 -2.6175,-0.80875 -3.9375,-0.90625 -0.32375,-0.0238 -0.63895,-0.031 -0.96875,-0.0312 z m -3.15625,7.78125 c 0.32938,-0.0234 0.65312,-6.3e-4 0.96875,0.0312 0.61875,0.0625 1.2075,0.21375 1.8125,0.5 0.60375,0.29 1.15625,0.69 1.65625,1.1875 0.52375,0.5225 1.00125,1.19 1.4375,1.96875 0.39875,0.7125 0.69375,1.40875 0.875,2.09375 0.175,0.66 0.27,1.31875 0.25,2 -0.02,0.675 -0.10875,1.28125 -0.28125,1.8125 l -0.0312,0 c -0.1675,0.515 -0.405,0.99 -0.71875,1.40625 -0.33125,0.44375 -0.875,0.95375 -1.65625,1.53125 -0.84875,0.62625 -1.9775,1.3275 -3.34375,2.09375 l -4.09375,2.28125 -6.84375,-12.25 3.0625,-1.6875 c 1.50125,-0.84 2.735,-1.51 3.71875,-1.96875 0.94,-0.44 1.65,-0.7225 2.15625,-0.84375 0.34188,-0.0781 0.70187,-0.13281 1.03125,-0.15625 z m -43.75,17.6875 c -1.44545,0.0622 -2.86937,0.26313 -4.28125,0.625 -1.865,0.47625 -3.705,1.21375 -5.5,2.21875 -1.88875,1.0575 -3.58375,2.32 -5.09375,3.75 -1.50375,1.42375 -2.8,3.02375 -3.90625,4.8125 -1.10375,1.79 -1.93875,3.6475 -2.5,5.5625 -0.565,1.93 -0.85875,3.915 -0.875,5.9375 -0.0138,2.025 0.245,4.04375 0.78125,6.03125 0.5325,1.975 1.335,3.89875 2.40625,5.8125 1.4375,2.5675 3.16,4.76125 5.1875,6.5625 2.03875,1.81 4.3775,3.22125 6.96875,4.21875 3.18875,1.235 6.385,1.7025 9.625,1.40625 3.23,-0.29625 6.4725,-1.35625 9.6875,-3.15625 2.88375,-1.615 5.26,-3.57875 7.125,-5.875 1.88,-2.3175 3.22,-4.9425 4.03125,-7.90625 0.8125,-2.97 1.0075,-5.96125 0.5625,-8.96875 -0.44125,-2.98125 -1.51625,-5.9825 -3.1875,-8.96875 -1.07625,-1.92375 -2.28125,-3.6175 -3.65625,-5.09375 -1.39625,-1.49875 -2.95,-2.76625 -4.625,-3.78125 -1.675,-1.0125 -3.44875,-1.775 -5.34375,-2.3125 -1.88625,-0.535 -3.86625,-0.82 -5.9375,-0.875 -0.48531,-0.0122 -0.98693,-0.0207 -1.46875,0 z m -0.875,6.96875 c 0.25418,-0.005 0.52812,-0.0153 0.78125,0 0.99875,0.0638 1.98125,0.32 2.96875,0.71875 1.035,0.41875 2.0975,0.99875 3.15625,1.78125 1.26375,0.94 2.405,2.0475 3.46875,3.28125 1.055,1.225 2.0425,2.6125 2.90625,4.15625 0.84125,1.50125 1.4925,2.98875 1.96875,4.5 0.47,1.49 0.7525,3.01375 0.875,4.5625 0.11875,1.54625 0.0763,2.955 -0.125,4.1875 -0.19875,1.2125 -0.53,2.30625 -1.03125,3.28125 l -0.0312,0 c -0.51125,0.98375 -1.14,1.8525 -1.90625,2.625 -0.78,0.78625 -1.70375,1.49125 -2.78125,2.09375 -1.0725,0.60125 -2.17125,1.01875 -3.28125,1.28125 -1.09625,0.25875 -2.23375,0.35375 -3.40625,0.28125 -1.1675,-0.0675 -2.2975,-0.2825 -3.40625,-0.6875 -1.14125,-0.4175 -2.29,-1.04125 -3.40625,-1.8125 -1.1125,-0.7675 -2.15875,-1.71375 -3.15625,-2.875 -1.015,-1.1825 -1.9775,-2.585 -2.875,-4.1875 -0.9375,-1.67625 -1.65125,-3.29875 -2.15625,-4.84375 -0.48875,-1.4975 -0.79125,-2.93875 -0.875,-4.34375 -0.08,-1.405 0.0125,-2.7075 0.25,-3.90625 0.235,-1.1775 0.6125,-2.275 1.15625,-3.28125 0.5375,-1.00625 1.26,-1.94 2.125,-2.78125 0.87625,-0.855 1.925,-1.62375 3.15625,-2.3125 1.155,-0.6475 2.27125,-1.12875 3.34375,-1.40625 0.77062,-0.20156 1.51871,-0.29727 2.28125,-0.3125 z m -43.25,15.9375 -1.0625,0.59375 -29.125,16.3125 -1.5,0.84375 0.84375,1.5 1.25,2.21875 0.84375,1.5 1.5,-0.84375 1.21875,-0.6875 c 0.555,-0.31125 1.02625,-0.5175 1.40625,-0.625 0.21375,-0.0612 0.34125,-0.0725 0.375,-0.0625 0.005,0 0.0813,0.0625 0.25,0.25 0.30875,0.34625 0.65375,0.8875 1.03125,1.5625 l 14.15625,25.25 c 0.2525,0.45 0.41875,0.84375 0.46875,1.125 0.0225,0.125 0.0125,0.1925 0,0.21875 -0.0625,0.13625 -0.205,0.285 -0.40625,0.46875 -0.275,0.25125 -0.6225,0.505 -1.0625,0.75 l -1.21875,0.6875 -1.5,0.84375 0.84375,1.53125 1.21875,2.21875 0.84375,1.5 1.5,-0.84375 18.25,-10.21875 c 1.82125,-1.02 3.4575,-2.0275 4.90625,-3.03125 1.48625,-1.03125 2.73125,-2.045 3.75,-3 1.1,-1.0375 2.00875,-2.16125 2.71875,-3.40625 0.71375,-1.24875 1.2525,-2.6 1.5625,-4.03125 0.31625,-1.47625 0.3375,-2.93875 0.125,-4.34375 -0.21375,-1.40875 -0.665,-2.77 -1.40625,-4.09375 -0.54875,-0.98125 -1.23625,-1.8575 -2,-2.625 -0.765,-0.76875 -1.62625,-1.43125 -2.59375,-1.96875 -0.97625,-0.53875 -2.01875,-0.91875 -3.15625,-1.15625 -1.12375,-0.235 -2.30625,-0.30875 -3.53125,-0.25 -1.19375,0.0537 -2.395,0.21875 -3.59375,0.5 -1.17875,0.2775 -2.365,0.6575 -3.53125,1.15625 -1.10625,0.48 -2.37625,1.065 -3.78125,1.78125 -1.36,0.69375 -2.8775,1.525 -4.5625,2.46875 l -5.15625,2.875 -5.75,-10.3125 7.46875,-4.1875 c 1.64125,-0.91875 3.09625,-1.58375 4.375,-2 1.16625,-0.38125 2.195,-0.55 3.03125,-0.5 0.8325,0.0562 1.78,0.33625 2.84375,0.84375 1.17125,0.55875 2.445,1.37 3.84375,2.4375 l 1.3125,1 1.0625,-1.25 1.78125,-2.15625 1.09375,-1.28125 -1.28125,-1.125 -8.75,-7.625 -0.90625,-0.8125 z m 8.0625,25.625 c 0.705,0.007 1.39625,0.13875 2.0625,0.375 0.65625,0.235 1.225,0.5675 1.71875,1 0.515,0.44875 0.955,1.025 1.34375,1.71875 0.39875,0.71125 0.6575,1.43875 0.78125,2.15625 0.12125,0.71125 0.11,1.4225 -0.0312,2.15625 l 0,0.0312 c -0.14625,0.76375 -0.385,1.43875 -0.71875,2.0625 -0.32875,0.61125 -0.73375,1.17375 -1.25,1.65625 -0.58875,0.54875 -1.455,1.17125 -2.5625,1.90625 -1.1425,0.7575 -2.55875,1.61625 -4.25,2.5625 l -3.5625,2 c -0.64875,0.36375 -1.1425,0.62375 -1.53125,0.8125 -0.17,0.0813 -0.3275,0.1725 -0.4375,0.21875 -0.002,-0.004 0.004,-0.0275 0,-0.0312 -0.23,-0.33875 -0.51,-0.7725 -0.8125,-1.3125 l -5.84375,-10.4375 5.5625,-3.09375 c 1.6125,-0.90375 3.0175,-1.6575 4.21875,-2.21875 1.175,-0.54875 2.2075,-0.94875 3.09375,-1.21875 0.76125,-0.23125 1.5025,-0.3525 2.21875,-0.34375 z"
       id="path86"
       style="fill:#ffffff;fill-opacity:1;fill-rule:nonzero;stroke:none" />
    <path
       d="m 521.07178,554.84361 -0.28125,0.125 1.34375,18.71875 c 0.12875,1.7825 0.12375,3.02625 -0.0625,3.71875 -0.1875,0.6975 -0.59375,1.28375 -1.21875,1.75 l 0.25,0.5 6.3125,-3.375 -0.28125,-0.5 c -1.025,0.45625 -1.7025,0.67125 -2.03125,0.65625 -0.5625,-0.02 -0.99375,-0.28375 -1.28125,-0.8125 -0.2125,-0.4 -0.365,-0.99375 -0.4375,-1.75 l -0.1875,-2.25 6.6875,-3.59375 2.28125,1.8125 c 0.59,0.475 0.90375,0.7375 0.96875,0.8125 0.14625,0.14625 0.2575,0.30125 0.34375,0.46875 0.1525,0.28 0.18625,0.5525 0.0625,0.8125 -0.1875,0.3625 -0.6725,0.7275 -1.40625,1.125 l -0.34375,0.21875 0.25,0.5 9.15625,-4.90625 -0.28125,-0.5 c -0.59875,0.2675 -1.12375,0.33625 -1.59375,0.21875 -0.6225,-0.16125 -1.65375,-0.8175 -3.09375,-1.9375 l -15.15625,-11.8125 z m 1.46875,7.40625 6.3125,5 -5.71875,3.0625 -0.59375,-8.0625 z m -14.1875,0.125 c -0.62355,-0.0327 -1.30125,0.13719 -1.96875,0.5 -0.90125,0.48375 -1.53,1.1075 -1.90625,1.84375 -0.375,0.735 -0.54,1.55125 -0.5,2.4375 0.04,0.89125 0.2625,2.14125 0.65625,3.75 0.34375,1.37125 0.45,2.3325 0.34375,2.9375 -0.10625,0.6 -0.31625,1.0775 -0.65625,1.375 -0.345,0.2975 -1.1625,0.8 -2.46875,1.5 l -3.0625,-5.65625 c -0.505,-0.945 -0.69125,-1.68 -0.5625,-2.1875 0.1275,-0.50875 0.66125,-1 1.59375,-1.5 l 0.3125,-0.1875 -0.28125,-0.5 -9.84375,5.28125 0.28125,0.5 0.40625,-0.1875 c 0.96125,-0.515 1.68,-0.67375 2.15625,-0.4375 0.47625,0.2375 0.995,0.925 1.59375,2.03125 l 6.8125,12.625 c 0.53625,0.9925 0.70875,1.7375 0.53125,2.21875 -0.17625,0.48625 -0.79625,1.0225 -1.875,1.625 l 0.28125,0.53125 9.84375,-5.28125 -0.28125,-0.53125 c -1.01375,0.5425 -1.76875,0.7975 -2.28125,0.75 -0.50875,-0.0525 -1.0425,-0.53125 -1.53125,-1.4375 l -3.4375,-6.40625 c 0.6575,-0.315 1.135,-0.44 1.4375,-0.375 0.3025,0.0587 0.89875,0.35625 1.78125,0.9375 l 7.8125,5.15625 6.3125,-3.375 -0.28125,-0.53125 c -0.5825,0.31625 -1.14125,0.4625 -1.6875,0.4375 -0.545,-0.0263 -1.11875,-0.21375 -1.6875,-0.5625 l -3.75,-2.40625 c -1.69875,-1.11375 -2.785,-1.78375 -3.25,-2.03125 -0.47125,-0.2425 -0.92125,-0.4 -1.375,-0.46875 -0.44875,-0.0688 -1.01375,-0.0138 -1.6875,0.15625 0.22375,-0.64375 0.30125,-1.3325 0.21875,-2.0625 -0.0775,-0.72875 -0.28125,-1.77375 -0.59375,-3.15625 -0.31125,-1.41 -0.4475,-2.46125 -0.40625,-3.09375 0.0412,-0.6325 0.2675,-1.05875 0.6875,-1.28125 0.38875,-0.2125 0.75625,0 1.125,0.59375 0.74375,1.18125 1.65625,1.47125 2.71875,0.90625 0.54,-0.29375 0.88,-0.69 1.0625,-1.21875 0.18125,-0.53 0.12125,-1.08375 -0.1875,-1.65625 -0.3975,-0.74375 -1.00125,-1.21875 -1.8125,-1.4375 -0.2025,-0.0547 -0.3859,-0.1141 -0.59375,-0.125 z m -19.75,10.3125 -6.34375,3.40625 0.28125,0.5 c 1.20875,-0.6075 2.00625,-0.89625 2.40625,-0.84375 0.39875,0.0487 0.675,0.245 0.84375,0.5625 0.22875,0.41625 0.35,1.2375 0.375,2.46875 l 0.21875,8.96875 -9.34375,-6.0625 c -0.4125,-0.27375 -0.6775,-0.49375 -0.78125,-0.6875 -0.2825,-0.52375 0.125,-1.095 1.21875,-1.6875 l 0.375,-0.1875 -0.28125,-0.5 -9.4375,5.0625 0.28125,0.5 c 0.8425,-0.375 1.5675,-0.5175 2.15625,-0.4375 0.58375,0.0788 1.43125,0.46625 2.5625,1.1875 l 13.375,8.65625 0.0312,0.6875 c 0.075,1.5675 -0.22125,2.5275 -0.875,2.875 -0.55,0.29875 -1.0825,0.0825 -1.625,-0.65625 -0.45625,-0.625 -0.87625,-1.0175 -1.25,-1.15625 -0.37375,-0.13375 -0.81,-0.0525 -1.3125,0.21875 -0.52875,0.2875 -0.885,0.69375 -1.0625,1.25 -0.17625,0.55125 -0.105,1.11 0.1875,1.65625 0.36875,0.67875 0.97,1.16375 1.78125,1.4375 0.81125,0.2675 1.70375,0.1425 2.71875,-0.40625 0.9275,-0.5 1.615,-1.1475 2.0625,-1.9375 0.445,-0.79 0.64375,-2.355 0.59375,-4.65625 l -0.3125,-14.6875 c -0.0375,-1.65375 0.0312,-2.8 0.21875,-3.4375 0.1925,-0.64375 0.59875,-1.15625 1.21875,-1.5625 l -0.2812,-0.53125 z m -22.09375,11.84375 -15.40625,8.25 0.28125,0.53125 c 0.93375,-0.4725 1.625,-0.7425 2.0625,-0.78125 0.4425,-0.04 0.81625,0.0688 1.125,0.34375 0.3025,0.26875 0.7375,0.92375 1.28125,1.9375 l 1.90625,3.5625 c 1.40125,2.61125 2.38375,4.66625 2.90625,6.15625 0.52875,1.48875 0.6775,2.7975 0.4375,3.9375 -0.24,1.14125 -0.6625,1.8725 -1.25,2.1875 -0.41625,0.2275 -0.7925,0.035 -1.15625,-0.53125 -0.82375,-1.2725 -1.77625,-1.60125 -2.84375,-1.03125 -0.5775,0.30875 -0.93125,0.74125 -1.03125,1.28125 -0.1075,0.54 -0.002,1.105 0.3125,1.6875 0.38,0.7075 0.95625,1.16625 1.71875,1.375 0.75625,0.20875 1.58875,0.0813 2.5,-0.40625 1.00375,-0.54375 1.755,-1.31125 2.28125,-2.3125 0.52625,-1.00625 0.76125,-2.2 0.6875,-3.59375 -0.0688,-1.39375 -0.38875,-2.76125 -0.9375,-4.0625 -0.55,-1.3 -1.44875,-3.11125 -2.71875,-5.46875 l -3.03125,-5.65625 4.5625,-2.4375 7.9375,14.8125 c 0.39625,0.73875 0.6075,1.295 0.625,1.65625 0.0175,0.3675 -0.10125,0.67625 -0.34375,0.96875 -0.24125,0.29125 -0.74,0.65 -1.5,1.0625 l 0.28125,0.5 9.53125,-5.125 -0.28125,-0.5 c -1.07875,0.555 -1.85375,0.75875 -2.3125,0.625 -0.46,-0.14 -0.9625,-0.71625 -1.5,-1.71875 l -7.0625,-13.15625 c -0.47875,-0.88375 -0.65375,-1.55 -0.53125,-2.03125 0.1225,-0.48625 0.69375,-1.00875 1.71875,-1.5625 l -0.25,-0.5 z m -37.9375,19.8125 -0.25,0.125 1.34375,18.71875 c 0.12875,1.78125 0.0937,3.02625 -0.0937,3.71875 -0.1875,0.6975 -0.59375,1.2825 -1.21875,1.75 l 0.28125,0.53125 6.28125,-3.375 -0.28125,-0.53125 c -1.025,0.455 -1.7025,0.67125 -2.03125,0.65625 -0.56125,-0.02 -0.99375,-0.28375 -1.28125,-0.8125 -0.2125,-0.39875 -0.335,-0.99375 -0.40625,-1.75 l -0.21875,-2.25 6.6875,-3.59375 2.28125,1.8125 c 0.59,0.47375 0.90375,0.7375 0.96875,0.8125 0.14625,0.14625 0.2875,0.3025 0.375,0.46875 0.1525,0.28125 0.155,0.55375 0.0312,0.8125 -0.18875,0.3625 -0.6425,0.76 -1.375,1.15625 l -0.375,0.1875 0.28125,0.53125 9.125,-4.9375 -0.28125,-0.5 c -0.6,0.26625 -1.1225,0.33625 -1.59375,0.21875 -0.62125,-0.16125 -1.65375,-0.78625 -3.09375,-1.90625 l -15.15625,-11.84375 z m 1.46875,7.40625 6.3125,5 -5.71875,3.0625 -0.59375,-8.0625 z m -20.90625,3.46875 -9.5625,5.15625 0.28125,0.5 c 1.095,-0.565 1.86,-0.77625 2.28125,-0.625 0.41625,0.155 0.99125,0.9025 1.71875,2.25 l 2.75,5.15625 -5.1875,2.78125 -3.1875,-5.90625 c -0.42875,-0.7975 -0.55125,-1.425 -0.40625,-1.90625 0.14375,-0.48125 0.57875,-0.925 1.3125,-1.34375 l -0.28125,-0.53125 -9.28125,5 0.28125,0.5 c 1.10625,-0.57 1.91875,-0.785 2.4375,-0.65625 0.51875,0.1275 1.05375,0.725 1.625,1.78125 l 6.78125,12.59375 c 0.64,1.1875 0.87875,2.02875 0.71875,2.5 -0.15625,0.475 -0.6725,0.95875 -1.5625,1.4375 -0.0487,0.0275 -0.16875,0.0937 -0.375,0.21875 l 0.25,0.5 9.28125,-4.96875 -0.28125,-0.5 c -0.80375,0.435 -1.45625,0.5375 -1.9375,0.3125 -0.48125,-0.23125 -0.98375,-0.86125 -1.53125,-1.875 l -3.1875,-5.9375 5.1875,-2.78125 3.34375,6.1875 c 0.5325,0.99875 0.73375,1.7075 0.59375,2.15625 -0.13875,0.44375 -0.74125,0.96125 -1.75,1.53125 l 0.28125,0.53125 9.8125,-5.28125 c 1.79,-0.96625 3.04875,-1.89875 3.78125,-2.78125 0.72625,-0.8825 1.20875,-1.88625 1.40625,-3 0.19625,-1.11375 -0.0188,-2.2075 -0.59375,-3.28125 -0.8525,-1.58 -2.11875,-2.51375 -3.84375,-2.8125 -1.72875,-0.2925 -3.93875,0.305 -6.625,1.75 l -2.53125,1.34375 -2.9375,-5.5 c -0.495,-0.9225 -0.75,-1.5475 -0.75,-1.84375 -10e-4,-0.3025 0.10875,-0.62375 0.3125,-0.9375 0.21,-0.31375 0.77125,-0.69875 1.65625,-1.1875 l -0.28125,-0.53125 z m 6,10.03125 c 0.56953,0.002 1.20562,0.16531 1.875,0.5 0.8875,0.45125 1.6175,1.21875 2.1875,2.28125 0.435,0.80875 0.65875,1.55375 0.6875,2.25 0.0238,0.7025 -0.09,1.33875 -0.375,1.90625 -0.27875,0.57375 -0.81875,1.0675 -1.5625,1.46875 -0.51875,0.2775 -1.01875,0.3575 -1.5,0.25 -0.47625,-0.10125 -0.9825,-0.7025 -1.5625,-1.78125 l -3.0625,-5.6875 c 1.1325,-0.60875 2.0625,-0.9825 2.78125,-1.125 0.17937,-0.0369 0.34141,-0.0631 0.53125,-0.0625 z m -36.96875,6.0625 -0.28125,0.15625 1.34375,18.71875 c 0.13,1.7825 0.125,3.0275 -0.0625,3.71875 -0.1875,0.6975 -0.62375,1.28375 -1.25,1.75 l 0.28125,0.5 6.3125,-3.375 -0.28125,-0.5 c -1.025,0.4575 -1.70125,0.67125 -2.03125,0.65625 -0.56125,-0.02 -0.99375,-0.315 -1.28125,-0.84375 -0.2125,-0.4 -0.365,-0.9625 -0.4375,-1.71875 l -0.1875,-2.25 6.6875,-3.59375 2.28125,1.8125 c 0.59,0.47375 0.90375,0.7375 0.96875,0.8125 0.145,0.14625 0.25625,0.3025 0.34375,0.46875 0.1525,0.28125 0.18625,0.55375 0.0625,0.8125 -0.1875,0.36375 -0.6725,0.72875 -1.40625,1.125 l -0.375,0.21875 0.28125,0.5 9.15625,-4.90625 -0.28125,-0.53125 c -0.59875,0.2675 -1.12375,0.3375 -1.59375,0.21875 -0.6225,-0.16 -1.685,-0.78625 -3.125,-1.90625 l -15.125,-11.84375 z m -12.65625,7.25 -16.3125,8.78125 0.28125,0.5 c 1.16,-0.625 1.99125,-0.8575 2.5,-0.71875 0.5025,0.13375 1.05625,0.74375 1.625,1.8125 l 6.96875,12.9375 c 0.5325,0.9825 0.70375,1.7175 0.53125,2.1875 -0.17125,0.47 -0.84125,1.01 -2,1.65625 l 0.28125,0.53125 10.125,-5.4375 c 1.79125,-0.9675 3.04875,-1.89875 3.78125,-2.78125 0.7275,-0.8825 1.21,-1.88625 1.40625,-3 0.19625,-1.11375 -0.0175,-2.2025 -0.59375,-3.28125 -0.8525,-1.58125 -2.12,-2.52 -3.84375,-2.8125 -1.73,-0.2975 -3.95875,0.3 -6.65625,1.75 l -2.5,1.3125 -3.9375,-7.34375 3.4375,-1.875 c 1.1875,-0.64125 2.14125,-0.98 2.84375,-1.0625 0.69625,-0.0825 1.415,0.0612 2.15625,0.4375 0.74125,0.37 1.47375,0.98625 2.15625,1.84375 l 0.53125,-0.28125 -2.78125,-5.15625 z m 14.125,0.1875 6.3125,5 -5.71875,3.0625 -0.59375,-8.0625 z m -14.53125,13.3125 c 0.57006,0.002 1.20562,0.16156 1.875,0.5 0.8875,0.44625 1.6225,1.1925 2.1875,2.25 0.59125,1.09625 0.78375,2.18625 0.625,3.21875 -0.15375,1.0325 -0.785,1.81875 -1.875,2.40625 -0.67375,0.3625 -1.23875,0.45 -1.6875,0.21875 -0.44375,-0.23125 -0.89125,-0.8175 -1.375,-1.71875 l -3.0625,-5.6875 c 1.1325,-0.60875 2.0325,-1.00875 2.75,-1.15625 0.17969,-0.0372 0.37248,-0.0319 0.5625,-0.0312 z"
       id="path98"
       style="fill:#2e4f9e;fill-opacity:1;fill-rule:evenodd;stroke:none" />
  </g>
</svg>
