<?xml version="1.0"?>
<svg xmlns="http://www.w3.org/2000/svg" width="262.681" height="262.681" viewBox="0 0 262.681 262.681">
						<path fill="#FFFFFF" d="M262.681,131.343c0,72.537-58.803,131.338-131.339,131.338
							C58.802,262.681,0,203.88,0,131.343C0,58.802,58.802,0,131.342,0C203.878,0,262.681,58.802,262.681,131.343"/>
						<path fill="#375197" d="M128.472,35.202l-0.604-11.439c-1.519,0.022-3.146,0.106-4.714,0.2
							c0.3,3.813,0.502,7.626,0.601,11.44c-2.038,0.111-4.251,0.236-6.421,0.3l-1.405-27.695c2.031-0.206,4.161-0.29,6.322-0.402
							c0.259,3.493,0.475,7.075,0.675,10.588c1.628-0.084,3.005-0.21,4.543-0.251c-0.119-3.422-0.202-7.094-0.369-10.559
							c2.106-0.201,4.283-0.078,6.39-0.279l1.506,27.795L128.472,35.202z"/>
						<path fill="#375197" d="M102.784,10.817c1.78-0.554,3.45-1.055,5.418-1.504
							c2.41,8.829,4.817,17.659,7.025,26.591l0.104,0.36l-6.552,1.753c-3.549-5.67-7.262-11.769-10.601-17.445l0.291,1.183
							l4.717,17.661c-1.962,0.562-3.674,1.064-5.426,1.564c-2.408-8.93-4.911-17.92-7.119-26.952l6.724-1.806
							c3.612,5.117,7.026,10.527,10.035,15.945L102.784,10.817z"/>
						<path fill="#375197" d="M167.908,13.024c-0.701,6.422-1.905,12.945-2.911,19.267
							c3.013-5.62,6.062-11.592,8.972-17.311c2.043,0.667,4.213,1.46,6.217,2.045l-0.236,0.515l-13.846,23.883l-0.201,0.2
							l-7.125-2.354v-0.255l2.91-27.996C163.793,11.72,165.902,12.321,167.908,13.024"/>
						<path fill="#375197" d="M148.642,14.128c-1.405,3.814-2.51,7.927-3.512,11.64l3.512,0.603
							C148.541,22.357,148.744,18.141,148.642,14.128 M153.359,9.211c0.7,9.432,1.203,18.966,1.906,28.398
							c-2.332-0.26-4.377-0.552-6.631-0.928c0-1.92,0.041-3.171,0.008-5.294c-1.706-0.199-3.313-0.501-5.018-0.802
							c-0.373,0.879-0.502,1.706-0.902,2.609l-0.902,2.509c-2.109-0.1-4.217-0.703-6.425-1.003l0.636-1.775l9.602-24.818
							L153.359,9.211z"/>
						<path fill="#375197" d="M69.567,23.862l13.449-6.823c0.848,1.489,1.556,2.949,2.307,4.415l-7.626,4.014
							c0.802,1.705,1.605,3.412,2.61,5.017l7.325-3.612c0.779,1.378,1.657,3.006,2.408,4.466c-2.319,1.22-5.018,2.458-7.426,3.761
							l3.012,5.922c2.706-1.004,5.316-2.609,8.027-3.813c0.902,1.505,1.562,2.937,2.313,4.439l-13.94,7.095l-0.216-0.497
							L69.567,23.862z"/>
						<path fill="#375197" d="M190.486,23.26c-1.305,6.021-2.709,12.143-4.415,17.963
							c2.909-5.118,6.021-10.337,9.132-15.454c1.76,1.022,3.264,1.898,4.919,2.91l-14.134,24.029l-0.318-0.146
							c-1.807-1.204-3.813-2.208-5.619-3.412c1.506-6.622,3.11-13.145,4.916-19.467c-3.41,5.418-6.422,11.138-9.832,16.556
							l-4.816-3.01l14.048-23.782l6.17,3.42L190.486,23.26z"/>
						<path fill="#375197" d="M68.765,45.236c-1.706-1.003-3.312,0.501-4.515,1.506l4.616,5.719l1.905-1.807
							c0.604-0.702,0.604-1.805,0.303-2.709C70.671,46.841,69.669,46.039,68.765,45.236 M61.039,36.507
							c-1.506-0.603-2.81,0.702-3.813,1.604l3.912,4.817l1.806-1.606c0.404-0.502,0.704-1.204,0.503-1.906
							C62.944,38.212,62.143,37.209,61.039,36.507 M68.264,35.1c0.602,1.407,0.903,3.313,0,4.718c0.4,0.099,0.903-0.302,1.405-0.302
							c2.507-0.301,4.213,1.405,5.82,3.111c1.404,2.107,2.809,4.716,1.806,7.526c-2.107,4.516-6.703,6.979-10.536,10.135
							l-1.506-1.705l-16.157-19.97c2.91-2.609,6.021-4.917,9.032-7.325c1.405-0.904,3.31-1.305,5.018-0.802
							C65.354,31.087,67.16,33.194,68.264,35.1"/>
						<path fill="#375197" d="M50.102,57.278c1.084,2.983,2.292,5.864,3.411,8.729
							c1.93,1.141,2.888-0.571,2.81-1.705C55.821,61.192,52.354,59.344,50.102,57.278 M41.773,53.163
							c-0.303,0.603-0.605,1.172-0.303,1.907c1.607,2.81,4.616,4.717,7.024,6.924c-1.003-3.11-2.408-6.121-3.611-9.131
							C44.081,52.161,42.474,52.161,41.773,53.163 M45.384,45.839c5.22,1.705,9.032,6.622,13.348,10.235
							c2.607,2.408,4.816,5.619,3.31,9.332c-1.203,2.71-3.512,5.419-6.221,6.824l0.701,2.006l-2.707,1.104l-0.103-0.401
							c-1.108,1.724-2.143,3.622-3.28,5.439l-10.367-1.726l-0.101,0.1l2.009,3.01c1.806,1.104,3.611,2.208,5.518,3.313
							c-1.189,1.938-2.214,3.805-3.318,5.611l-0.295-0.193L20.634,76.872l-0.337-0.227c1.048-1.943,2.107-3.713,3.211-5.519
							c3.555,2.032,7.027,4.014,10.536,6.02v-0.3c-2.809-3.312-5.316-6.924-7.825-10.437c0.902-1.906,2.206-3.813,3.31-5.718
							l7.626,11.238l0.402,0.301l15.955,2.307c-0.301-0.601-0.408-1.797-1.203-1.906c-5.419-1.606-9.432-7.024-13.949-10.737
							c-2.61-2.208-3.813-5.519-2.709-8.731c1.104-2.809,3.878-5.803,6.685-7.007c-0.208-0.627-0.464-1.321-0.765-2.024l2.709-1.003
							L45.384,45.839z"/>
						<path fill="#375197" d="M36.856,93.402l5.815,1.999c-0.668,1.92-1.502,4.022-2.103,5.929
							c-2.031-0.586-4.015-1.205-5.922-1.907L36.856,93.402z"/>
						<path fill="#375197" d="M22.003,97.918c-0.2,1.906-0.717,4.007-1.118,5.914
							c-1.587-0.125-3.498-1.198-4.901,0.006c-0.704,0.602-0.904,1.605-0.803,2.509c0.2,0.602,0.7,1.104,1.303,1.305l14.653,3.01
							c0.702,0,1.404,0.201,1.905-0.402c0.702-0.802,0.904-2.007,0.401-3.01c-1.202-1.505-3.334-1.456-5.217-1.906
							c0.381-2.096,0.702-3.914,1.104-5.922c3.51,0.402,7.526,1.206,9.232,4.919c1.001,3.411,0.2,7.224-1.606,10.034
							c-1.906,2.709-5.42,3.21-8.429,2.509l-13.748-3.01c-1.907-0.503-3.815-2.209-4.515-4.115
							c-0.904-4.114-0.101-8.53,3.009-11.339C15.681,96.714,19.393,97.115,22.003,97.918"/>
						<path fill="#375197" d="M36.453,121.319l-0.668,6.552c-2.129-0.25-4.253-0.467-6.259-0.668
							c0.208-2.128,0.383-4.444,0.583-6.552L36.453,121.319z"/>
						<path fill="#375197" d="M13.174,130.23c1.605,0.201,3.411,0.201,5.218,0.201
							c0.115-2.643,0.115-5.565,0.198-8.236l5.118,0.108v8.027l0.016,0.171l11.927,0.331l-0.101,6.522h-0.603l-27.094-0.502
							c0-5.318,0.011-10.608,0.053-15.7l5.268,0.247V130.23z"/>
						<path fill="#BF2227" d="M36.354,145.583c1.706,9.936,4.614,19.367,9.131,28.098l-0.401,0.401l-8.429,4.314
							c-5.018-9.433-8.229-19.667-9.935-30.505c-0.101-0.402-0.202-1.104,0.402-1.004C30.232,146.587,33.242,145.884,36.354,145.583
							"/>
						<path fill="#BF2227" d="M19.092,148.794c1.706,11.741,5.621,22.578,10.437,32.914
							c-2.81,1.606-5.72,3.01-8.731,4.416c-5.719-11.34-9.632-23.48-11.639-36.326c3.21-0.703,6.423-1.205,9.733-1.506
							L19.092,148.794z"/>
						<path fill="#BF2227" d="M78.099,211.011c6.322,4.213,12.944,7.625,19.968,10.234c-0.099,0.1,0,0.2,0.101,0.2
							h0.101l-1.706,9.935c-2.409-0.502-4.716-1.505-7.025-2.509c-19.267-7.626-38.132-24.585-48.87-42.948
							c2.511-1.906,5.621-3.412,8.428-5.218C56.222,191.944,66.659,203.584,78.099,211.011"/>
						<path fill="#BF2227" d="M34.045,189.735c13.547,23.28,37.129,41.645,61.414,49.372
							c0.2,3.411-0.303,6.923-0.101,10.437c-27.497-8.229-54.69-28.199-69.742-54.791C28.426,193.148,31.137,191.241,34.045,189.735
							"/>
						<path fill="#375197" d="M130.98,103.438c-4.616,0.501-1.203,5.92-4.315,7.826
							c-1.205,0.804-3.813,0.603-3.512,2.71c1.305-0.201,2.509-1.003,3.714-1.606c5.015-1.305,10.134-1.806,15.554-2.308l0.602-0.3
							c-0.102-0.201-0.202-0.402-0.402-0.603C139.31,105.946,135.396,104.04,130.98,103.438 M233.939,62.396
							c10.134,15.152,16.656,31.81,19.467,50.074c-13.548-4.115-27.598-7.227-42.045-9.233l-0.104,0.1
							c15.053,4.817,29.401,11.339,43.25,19.066c1.104,15.956-0.701,31.509-5.218,45.558c-12.342-6.122-24.685-12.343-37.729-16.96
							c2.609,2.107,5.619,3.914,8.529,5.922c8.932,6.021,17.561,12.744,26.191,19.667c-5.721,14.551-14.148,27.998-25.59,40.04
							c-12.543-10.236-24.785-22.98-35.221-35.424c3.311,7.627,8.328,14.752,12.943,21.875c4.917,6.925,9.734,13.749,15.352,20.271
							c-12.643,11.439-26.992,19.467-42.144,24.786c-7.928-11.541-13.247-24.284-18.362-37.028
							c0.301,5.218,1.504,10.334,2.406,15.453c1.905,8.328,4.016,16.457,6.521,24.383c-15.854,4.316-35.42,5.22-51.979,2.008
							c-1.405-9.432-2.206-19.266-1.504-29.2c0.202-4.918,0.904-9.835,1.203-14.551c0.904-3.511,0.904-7.325,0.904-10.938
							c-0.101-0.702-0.301-1.405-1.003-1.807c-1.907-0.2-3.211,1.104-4.717,1.705c-4.715,2.209-8.831,6.123-13.949,7.528
							c-1.905,0.502-4.013,0.099-5.417-1.205c-2.81-3.01-3.714-6.824-5.018-10.437c-1.607-6.222-4.015-12.442-3.313-19.267
							c0.404-0.803,0.905-1.706,1.809-2.207c3.01-0.803,5.617,1.203,8.126,2.609c5.018,3.01,9.434,7.525,15.253,8.629
							c1.003,0.2,1.907-0.201,2.709-0.701c1.806-2.811,2.107-7.026,1.005-10.137c-1.104-2.106-3.11-4.214-5.72-3.912
							c-4.417,0.299-8.128,2.105-12.545,2.307c-3.009,0.101-6.02,0.201-8.828-0.602c-2.511-0.902-5.321-1.506-7.226-3.714
							c-2.911-4.516-3.512-10.034-3.914-15.553c0.101-1.506,0.202-3.111,0.803-4.415c3.311-2.309,7.426-3.913,9.733-7.527
							c0.703-1.806,0.703-4.515,0.2-6.421c-1.203,1.304-2.006,2.91-3.61,3.712c-2.108,1.305-4.718,2.108-7.227,1.506
							c-2.808-2.308-1.705-6.422-1.503-9.733c0.401-1.606,0.902-3.413,2.407-4.516c11.338-8.43,24.082-13.547,36.726-18.866
							c5.52-2.207,11.038-4.415,16.859-6.021c1.004-0.902,1.004-2.407,1.605-3.511c1.306-2.709,4.216-4.014,6.524-5.62
							c5.419-3.211,11.137-5.82,16.958-7.927l0.703-0.502c1.203-4.315,3.312-8.428,6.923-11.74
							c5.821-4.516,12.143-7.626,19.066-9.333c13.447-2.909,28.898-2.71,42.848-1.305C222.798,60.087,228.519,60.89,233.939,62.396"
							/>
</svg>