<?xml version="1.0" encoding="utf-8"?>
<!-- Generator: Adobe Illustrator 13.0.0, SVG Export Plug-In . SVG Version: 6.00 Build 14948)  -->
<!DOCTYPE svg PUBLIC "-//W3C//DTD SVG 1.0//EN" "http://www.w3.org/TR/2001/REC-SVG-20010904/DTD/svg10.dtd">
<svg version="1.0" id="Ebene_1" xmlns="http://www.w3.org/2000/svg" xmlns:xlink="http://www.w3.org/1999/xlink" x="0px" y="0px"
	 width="374.365px" height="439.37px" viewBox="0 0 374.365 439.37" enable-background="new 0 0 374.365 439.37"
	 xml:space="preserve">
<path fill-rule="evenodd" clip-rule="evenodd" fill="#FFFFFF" d="M190.662,7.826l-2.392,1.957l-1.957,0.436h-0.217l-1.739-0.436
	l-2.174-1.957l-6.305,15.87v0.219c-0.217,0.651-0.651,1.086-1.086,1.521l-1.957,0.218c-0.869,0-1.521-0.218-1.957-0.652
	l-6.304-6.305l-11.306,15.436c-0.218,0.653-0.869,0.869-1.304,1.087h-1.74c-0.652,0-0.869-0.218-1.521-0.434l-8.044-7.61
	c-9.565,28.044-3.696,54.351,17.61,77.83c0.652,0.436,0.869,1.305,0.869,2.174c0,0.871-0.217,1.522-0.869,1.957
	c-0.652,0.652-1.305,0.869-2.175,0.869c-0.869,0-1.738-0.217-2.174-0.869h0.219c-16.741-18.262-24.784-38.044-23.915-58.916
	c-26.087,8.479-49.133,22.827-69.786,43.697C25.436,128.92,7.826,171.313,7.826,220.88c0,49.569,17.61,91.745,52.611,126.747
	c24.35,24.348,52.177,40.438,83.484,47.827c0.869,0,1.738,0.435,2.39,0.872l41.089,34.131l40.871-34.131
	c0.652-0.438,1.521-0.872,2.176-0.872c31.523-7.39,59.568-23.479,83.699-47.827c35.002-35.002,52.611-77.178,52.611-126.747
	c0-49.566-17.609-91.96-52.611-126.963c-21.087-21.305-45.221-36.089-71.744-44.349c0.869,21.305-6.955,41.089-23.913,59.568
	c-0.651,0.652-1.087,0.869-1.956,0.869s-1.74-0.217-2.175-0.869c-0.651-0.435-1.304-1.086-1.304-1.957
	c0-0.869,0.435-1.738,1.304-2.174c21.089-23.479,26.958-49.351,17.61-77.83l-8.045,7.61l-1.738,0.434h-1.523
	c-0.652-0.218-1.086-0.434-1.304-1.087l-11.304-15.436l-6.523,6.305l-1.738,0.652l-1.955-0.218c-0.438-0.435-1.09-0.869-1.09-1.739
	L190.662,7.826L190.662,7.826z"/>
<path fill-rule="evenodd" clip-rule="evenodd" d="M239.361,40.654v7.827c27.609,8.261,52.609,23.262,74.567,45.436
	c35.22,35.003,52.396,77.396,52.829,126.746c-0.434,49.786-17.609,91.744-52.829,126.747
	c-24.349,24.564-51.958,40.434-83.481,48.044h0.652c1.303,0,2.172,0.435,2.824,1.304l0.871,1.523v1.304v0.869l-1.088,1.958
	c32.175-7.827,60.656-24.565,85.873-49.351c36.307-36.741,54.352-80.657,54.785-132.398c-0.434-51.523-18.479-95.657-54.785-131.963
	C295.884,65.004,269.361,49.133,239.361,40.654L239.361,40.654z"/>
<path fill-rule="evenodd" clip-rule="evenodd" d="M133.485,49.133v-8.262C104.57,49.351,78.264,65.221,55.002,88.7
	C18.479,125.006,0,169.14,0,220.663c0,51.741,18.479,95.657,55.002,132.398c25.001,24.785,53.697,41.523,85.874,49.351l-1.086-1.958
	v-0.869v-1.304l0.869-1.523c0.435-0.869,1.305-1.304,2.826-1.304h0.436c-31.307-7.61-59.134-23.479-83.701-48.044
	C25.218,312.407,7.609,270.449,7.609,220.663c0-49.35,17.609-91.743,52.611-126.746C81.96,72.178,106.527,57.177,133.485,49.133
	L133.485,49.133z"/>
<path fill-rule="evenodd" clip-rule="evenodd" d="M228.271,396.326L187.4,430.239l-41.089-33.913
	c-0.869-0.872-1.738-1.09-2.826-1.09c-1.305,0.218-1.957,0.652-2.826,1.307c-0.652,1.086-1.087,1.955-0.869,3.042
	c0,1.304,0.433,1.956,1.304,2.827l43.48,36.089l2.826,0.869l2.609-0.869l43.479-36.089c0.869-0.871,1.306-1.523,1.306-2.827
	c0.436-1.087,0-1.956-0.871-3.042c-0.435-0.654-1.521-1.089-2.824-1.307C230.012,395.236,229.143,395.454,228.271,396.326
	L228.271,396.326z"/>
<path fill-rule="evenodd" clip-rule="evenodd" d="M238.925,55.22v8.479c23.914,8.044,45.438,21.306,64.785,40.654
	c32.176,31.958,48.265,70.873,48.265,116.31c0,45.438-16.089,84.134-48.265,116.31c-25.437,25.438-54.785,40.654-88.264,46.089
	v8.044c35.869-5.651,67.176-21.74,93.916-48.48c33.699-33.479,50.654-74.134,50.654-121.962c0-47.611-16.955-88.266-50.654-121.962
	C288.492,77.83,264.794,63.481,238.925,55.22L238.925,55.22z"/>
<path fill-rule="evenodd" clip-rule="evenodd" d="M133.485,64.568V56.09c-25.001,8.043-47.828,22.392-68.264,42.611
	c-33.48,33.696-50.438,74.351-50.438,121.962c0,47.828,16.958,88.482,50.438,121.962c26.305,26.523,56.742,42.395,91.743,48.264
	v-8.26c-32.827-5.654-61.525-20.871-86.092-45.656c-32.175-32.176-48.263-70.871-48.263-116.31
	c0-45.438,16.088-84.352,48.263-116.31C89.569,85.439,110.441,72.178,133.485,64.568L133.485,64.568z"/>
<path fill-rule="evenodd" clip-rule="evenodd" d="M271.101,136.964c-23.045-23.263-50.874-34.785-83.701-34.785
	c-32.61,0-60.654,11.522-84.135,34.785c-22.827,23.043-34.349,51.089-34.349,83.699c0,32.828,11.522,60.655,34.349,83.917
	c23.48,23.045,51.525,34.568,84.135,34.568c32.827,0,60.656-11.523,83.701-34.568c23.045-23.262,34.565-51.089,35-83.917
	C305.667,188.053,294.146,160.007,271.101,136.964L271.101,136.964z M187.4,110.005c30.438,0,56.525,10.87,78.267,32.611
	c21.521,21.305,32.393,47.611,32.393,78.047c0,30.438-10.872,56.741-32.393,78.265c-21.741,21.741-47.829,32.393-78.267,32.393
	c-30.653,0-56.742-10.651-78.481-32.393c-21.306-21.523-32.394-47.826-32.394-78.265c0-30.436,11.087-56.742,32.394-78.047
	C130.658,120.875,156.747,110.005,187.4,110.005L187.4,110.005z"/>
<path fill-rule="evenodd" clip-rule="evenodd" d="M261.099,146.964c-20.218-20.436-44.783-30.653-73.699-30.653
	c-28.697,0-53.263,10.217-73.916,30.653c-20.219,20.436-30.437,45.003-30.437,73.699c0,28.915,10.218,53.479,30.437,73.7
	c20.653,20.654,45.219,30.871,73.916,30.871c28.916,0,53.481-10.217,73.699-30.871c20.437-20.221,30.437-44.785,30.437-73.7
	C291.536,191.967,281.536,167.4,261.099,146.964L261.099,146.964z M143.05,176.748l0.435-0.435
	c12.176-11.957,26.741-18.044,43.915-18.044c17.176,0,31.958,6.087,44.133,18.479l0.218,0.217
	c12.175,12.175,18.044,26.741,18.044,43.698c0,17.174-6.086,31.959-18.044,44.134l-0.869,0.869
	c-12.175,11.521-26.523,17.391-43.481,17.391c-17.392,0-32.175-5.869-44.35-18.045c-11.957-12.39-18.262-27.175-18.262-44.349
	C124.789,203.489,131.094,188.705,143.05,176.748L143.05,176.748z"/>
<polygon fill-rule="evenodd" clip-rule="evenodd" fill="#E2001A" points="201.748,201.967 188.053,159.355 173.921,201.967 
	127.832,201.967 164.574,228.924 150.007,272.622 187.4,245.664 225.012,273.491 210.662,228.924 248.492,201.967 201.748,201.967 
	"/>
<polygon fill-rule="evenodd" clip-rule="evenodd" points="196.965,331.973 188.922,331.973 188.922,418.064 196.965,411.326 
	196.965,331.973 "/>
<polygon fill-rule="evenodd" clip-rule="evenodd" points="208.271,331.973 200.227,331.973 200.227,408.716 208.271,401.978 
	208.271,331.973 "/>
<polygon fill-rule="evenodd" clip-rule="evenodd" points="219.576,331.973 211.533,331.973 211.533,399.15 219.576,392.629 
	219.576,331.973 "/>
<polygon fill-rule="evenodd" clip-rule="evenodd" points="185.662,331.973 177.617,331.973 177.617,410.891 185.662,417.629 
	185.662,331.973 "/>
<polygon fill-rule="evenodd" clip-rule="evenodd" points="174.574,331.973 166.312,331.973 166.312,401.541 174.574,408.498 
	174.574,331.973 "/>
<polygon fill-rule="evenodd" clip-rule="evenodd" points="163.269,331.973 155.225,331.973 155.225,392.412 163.269,399.15 
	163.269,331.973 "/>
<path fill-rule="evenodd" clip-rule="evenodd" d="M188.053,9.565l2.608-1.739l5.869,15.87c0.217,0.653,0.869,1.088,1.089,1.305
	l2.173,0.652l1.738-0.869l6.523-6.088l11.086,15.436l1.307,0.869l1.738,0.218l1.738-0.869l7.827-7.609
	c9.565,28.479,3.696,54.568-17.827,78.047c-0.435,0.653-0.869,1.305-0.869,2.174l1.304,2.174c0.435,0.652,1.306,0.869,2.175,0.652
	c0.869,0,1.305-0.216,1.956-0.869c24.351-26.741,30.22-56.09,17.61-88.917l-1.305-1.305l-1.957-0.652l-1.956,1.087h0.218
	l-8.914,8.478l-11.307-15.435l-1.521-1.087h-1.956l-1.306,0.435l-5.651,5.653l-5.652-15.218l-1.086-1.522h0.217L191.965,0
	c-0.651,0-1.304,0.217-1.738,0.435l-3.914,2.827l-4.131-2.827C181.748,0.217,181.312,0,180.443,0l-1.739,0.435l-1.086,1.522
	l-5.652,15.218l-5.653-5.653l-1.738-0.435h-1.74l-1.304,1.087L150.442,27.61l-8.914-8.478l-1.738-1.087h-0.218l-1.738,0.652
	l-1.522,1.305c-12.393,32.827-6.739,62.177,17.608,88.917c0.436,0.653,1.305,0.869,2.174,0.869c0.871,0.217,1.523,0,1.957-0.652
	h0.219l0.869-2.174c0-0.869-0.217-1.521-0.869-2.174c-21.306-23.479-27.175-49.568-17.61-78.047l8.044,7.609
	c0.434,0.651,0.869,0.651,1.521,0.869l1.74-0.218c0.435,0,1.086-0.651,1.304-0.869l11.306-15.436l6.304,6.088l1.957,0.869
	l1.957-0.652c0.435-0.217,0.869-0.651,1.086-1.305l5.871-15.87l2.609,1.739l1.739,0.653h0.217L188.053,9.565L188.053,9.565z"/>
<path fill-rule="evenodd" clip-rule="evenodd" fill="#E2001A" d="M228.271,39.785L217.62,50.872
	c1.087,15.218-1.304,30.218-7.61,45.002l4.783,1.739C227.185,77.395,231.75,58.047,228.271,39.785L228.271,39.785z"/>
<path fill-rule="evenodd" clip-rule="evenodd" fill="#E2001A" d="M209.792,27.827l-10.869,11.088
	c4.565,15.87,4.348,34.132-0.435,54.786l6.738,1.956C217.185,76.091,218.489,53.697,209.792,27.827L209.792,27.827z"/>
<path fill-rule="evenodd" clip-rule="evenodd" fill="#E2001A" d="M187.835,94.353h4.781c8.697-23.48,7.61-48.699-3.478-75.439
	C189.139,52.177,188.488,77.395,187.835,94.353L187.835,94.353z"/>
<path fill-rule="evenodd" clip-rule="evenodd" fill="#E2001A" d="M154.79,50.872l-10.869-11.086
	c-3.262,18.262,1.085,37.61,13.696,57.828l5-1.739C156.094,81.09,153.486,66.09,154.79,50.872L154.79,50.872z"/>
<path fill-rule="evenodd" clip-rule="evenodd" fill="#E2001A" d="M173.704,38.915l-11.086-11.088
	c-8.698,25.87-7.393,48.264,4.565,67.83l6.957-1.956C169.138,73.047,168.921,54.785,173.704,38.915L173.704,38.915z"/>
<path fill-rule="evenodd" clip-rule="evenodd" fill="#E2001A" d="M179.792,94.353h4.782c-0.869-16.958-1.305-42.176-1.305-75.439
	C172.183,45.654,171.095,70.873,179.792,94.353L179.792,94.353z"/>
<polygon fill-rule="evenodd" clip-rule="evenodd" points="265.23,359.365 254.578,340.887 263.274,335.451 275.667,353.062 
	286.97,345.451 263.925,316.756 255.664,322.625 259.794,328.928 251.316,334.365 247.62,327.625 238.054,333.279 253.056,366.323 
	265.23,359.365 "/>
<path fill-rule="evenodd" clip-rule="evenodd" d="M291.97,284.797l-5.217,6.305l3.262,5l-8.045,9.564l-5.869-1.521l-8.479,9.782
	l37.175,13.697l7.175-8.043L291.97,284.797L291.97,284.797z M289.363,307.625l4.131-5.436l3.911,8.043L289.363,307.625
	L289.363,307.625z"/>
<path fill-rule="evenodd" clip-rule="evenodd" d="M338.496,272.622l-6.957-3.913l-7.176,14.567l-5.869-9.785l-6.521,2.827
	l1.956,4.348c0,0-10,2.174-10-6.523c0-7.172,12.173-8.259,12.173-8.259l-0.432-2.61c0,0-19.568-2.39-20.221,14.783
	c-0.651,16.958,19.349,15.002,19.349,15.002l6.958,12.607L338.496,272.622L338.496,272.622z"/>
<polygon fill-rule="evenodd" clip-rule="evenodd" points="345.886,242.402 323.059,240.664 331.103,251.316 343.494,254.795 
	341.103,265.884 305.232,254.143 306.536,246.316 315.015,246.971 308.928,238.709 309.58,228.491 346.539,228.924 345.886,242.402 
	"/>
<polygon fill-rule="evenodd" clip-rule="evenodd" points="310.015,204.141 336.755,201.096 336.103,191.531 345.452,190.879 
	347.625,223.271 338.713,223.271 338.059,213.054 310.232,213.271 310.015,204.141 "/>
<polygon fill-rule="evenodd" clip-rule="evenodd" points="246.099,111.31 263.708,79.352 296.318,102.179 271.97,130.225 
	263.492,123.484 281.101,100.005 271.101,92.831 254.578,116.963 246.099,111.31 "/>
<path fill-rule="evenodd" clip-rule="evenodd" d="M312.19,120.006l-38.047,12.609l4.782,5.436l5.221-1.522l8.477,10.219
	l-2.825,5.217l7.393,10.436l22.173-34.349L312.19,120.006L312.19,120.006z M295.884,140.007l-4.349-5.436l8.044-2.391
	L295.884,140.007L295.884,140.007z"/>
<path fill-rule="evenodd" clip-rule="evenodd" d="M340.234,167.4l-9.564-20.653l-32.393,18.043l4.128,9.132l5.654-2.608
	c0,0,6.087,10.435,7.827,13.479c1.955,3.26,7.607,8.695,18.262,3.695C347.844,181.965,340.234,167.4,340.234,167.4L340.234,167.4z
	 M326.972,176.313c-8.695,3.478-11.303-5.87-11.303-5.87l13.259-5.653C328.928,164.79,334.365,173.271,326.972,176.313
	L326.972,176.313z"/>
<path fill-rule="evenodd" clip-rule="evenodd" d="M53.263,130.225l-5.435,9.348l26.087,30.436l3.914-7.174l-4.131-4.348l6.088-10.87
	l6.087,0.435l6.74-11.087L53.263,130.225L53.263,130.225z M69.133,153.269l-5.217-7.175l8.478,1.088L69.133,153.269L69.133,153.269z
	"/>
<polygon fill-rule="evenodd" clip-rule="evenodd" points="64.785,242.402 38.48,247.402 39.785,256.971 30.436,258.491 
	25.871,226.316 34.567,225.447 36.306,235.881 63.916,233.273 64.785,242.402 "/>
<path fill-rule="evenodd" clip-rule="evenodd" d="M102.831,310.887l-5,1.955l-9.565-9.348l2.609-5.218l-8.479-9.785l-18.696,36.526
	l7.826,7.172l36.742-16.303L102.831,310.887L102.831,310.887z M82.83,318.711l3.044-8.042l4.783,5L82.83,318.711L82.83,318.711z"/>
<path fill-rule="evenodd" clip-rule="evenodd" d="M125.875,327.189l-3.261,5.438c0,0-11.088-4.785-14.131-6.089
	c-3.479-1.521-11.305-2.393-16.741,8.044c-7.174,13.262,7.827,20.436,7.827,20.436l19.784,10.654l15.218-33.699L125.875,327.189
	L125.875,327.189z M109.788,350.234c0,0-9.348-3.479-5.217-10.217c4.783-8.045,12.61-2.176,12.61-2.176L109.788,350.234
	L109.788,350.234z"/>
<path fill-rule="evenodd" clip-rule="evenodd" d="M76.307,273.926l-5.869,2.609c0,0-0.87-1.74-2.174-3.913l4.565-6.521
	l-4.565-13.479l-7.392,8.044c-2.827-2.826-8.044-5.219-16.305-1.306c-13.696,6.523-6.088,21.089-6.088,21.089l9.565,20.654
	l32.393-18.047L76.307,273.926L76.307,273.926z M49.784,283.057c0,0-5.435-8.477,1.957-11.521
	c8.696-3.479,11.306,5.869,11.306,5.869L49.784,283.057L49.784,283.057z"/>
<polygon fill-rule="evenodd" clip-rule="evenodd" points="63.047,206.314 26.522,203.706 25.871,216.968 62.829,216.968 
	63.047,206.314 "/>
<polygon fill-rule="evenodd" clip-rule="evenodd" points="35.654,197.184 40.437,180.01 65.002,201.314 72.83,173.486 
	65.002,169.791 61.959,180.227 37.393,158.704 27.175,195.227 35.654,197.184 "/>
<polygon fill-rule="evenodd" clip-rule="evenodd" points="93.048,89.135 105.005,81.96 123.918,113.267 118.049,118.267 
	96.309,117.397 103.917,128.268 96.745,135.007 69.351,110.658 78.481,101.527 104.57,106.093 93.048,89.135 "/>
<path fill-rule="evenodd" clip-rule="evenodd" fill="#FFFFFF" d="M111.092,221.316l0.435-4.131l-7.827-0.652l0.653-7.827
	l-3.044-0.217l-0.869,7.827l-4.131-0.436l0.652-8.913l-3.478-0.435l-1.088,13.262L111.092,221.316L111.092,221.316z
	 M105.005,171.965l-1.74,3.695l10.653,5.001c2.392,1.086,3.262,2.609,1.957,5.217c-1.305,3.044-3.478,2.608-5.219,1.739
	l-10.652-5.001l-1.74,3.696l10.653,5c4.565,2.174,8.043,0.436,10-3.914c2.174-4.564,1.305-8.478-3.261-10.435L105.005,171.965
	L105.005,171.965z M131.528,167.617l6.086-5.217c4.35-3.696,3.696-8.696,0.219-12.827c-4.131-4.565-8.914-4.565-12.61-1.305
	l-6.087,5.219L131.528,167.617L131.528,167.617z M124.572,153.486l2.174-1.957c3.043-2.609,5.652-1.739,8.262,1.088
	c2.607,3.259,1.956,5.869,0,7.39l-2.61,2.393L124.572,153.486L124.572,153.486z M158.921,140.442l4.348-1.305
	c1.521-0.435,3.043,0,3.478,1.74c0.436,1.957-0.651,2.827-2.173,3.26l-4.349,1.088L158.921,140.442L158.921,140.442z
	 M157.181,149.573l8.696-2.609c3.261-0.87,5.869-3.26,5-6.957c-0.651-2.391-2.391-3.696-4.782-3.696
	c1.305-1.087,1.957-2.609,1.521-4.348c-1.086-3.479-3.695-3.912-7.173-2.826l-8.479,2.392L157.181,149.573L157.181,149.573z
	 M156.964,133.485l3.696-1.088c1.304-0.435,2.826-0.435,3.26,1.305c0.435,1.521-0.435,2.392-1.74,2.826l-4.131,1.088
	L156.964,133.485L156.964,133.485z M184.792,143.485l4.131,0.218l1.956-4.131l6.959,0.652l1.086,4.131l4.131,0.435l-5.654-19.35
	l-4.131-0.216L184.792,143.485L184.792,143.485z M195.009,130.007L195.009,130.007l1.956,6.957l-5-0.218L195.009,130.007
	L195.009,130.007z M216.096,149.355l11.523,6.088l1.741-3.045l-8.045-4.348l7.173-13.479l-3.696-1.738L216.096,149.355
	L216.096,149.355z M243.056,159.138c-3.479,3.044-2.393,7.393,0.215,10.436c3.479,3.696,7.176,4.129,9.785,1.739
	c3.043-2.826,0.869-6.523,0.218-7.827c-2.175-4.348-2.61-5-1.523-6.086c1.089-0.871,2.61-0.218,3.479,0.869
	c1.306,1.305,1.957,3.043,0.434,4.565l2.61,3.043c3.262-3.043,1.956-6.74-0.651-9.783c-2.176-2.391-5.872-3.913-8.697-1.304
	c-2.609,2.391-1.74,5.216-0.217,7.609c1.086,2.609,2.824,5,1.304,6.304c-1.304,1.305-3.262-0.216-4.131-1.086
	c-1.521-1.739-2.173-3.914-0.218-5.435L243.056,159.138L243.056,159.138z M256.099,187.4l1.523,3.914l5.651-1.957l3.044,1.305
	l-6.088,8.262l1.523,4.783l8.259-11.305l9.351,4.565l-1.74-4.784l-9.783-4.564l7.393-2.391l-1.307-3.914L256.099,187.4
	L256.099,187.4z M262.839,217.402l0.217,4.131l18.697-0.435l-0.218-4.131L262.839,217.402L262.839,217.402z"/>
<path fill-rule="evenodd" clip-rule="evenodd" fill="#FFFFFF" d="M137.397,298.928l3.696,1.956l2.827-5.435l3.26-0.869l1.087,10
	l4.565,2.393l-1.957-13.696l10.001-3.044l-4.565-2.393l-10.001,3.262l3.696-6.738l-3.696-1.959L137.397,298.928L137.397,298.928z
	 M165.877,310.669l13.045,2.39l0.651-3.479l-9.131-1.521l2.826-15l-4.131-0.869L165.877,310.669L165.877,310.669z M206.531,292.189
	l-4.129,0.652l1.738,11.521c0.218,2.826-0.434,4.131-3.479,4.564c-3.262,0.436-3.914-1.521-4.348-3.479l-1.521-11.521l-4.131,0.652
	l1.738,11.523c0.654,5,3.914,6.955,8.914,6.304s7.609-3.696,6.74-8.696L206.531,292.189L206.531,292.189z M223.489,296.535
	l3.913-2.172c1.521-0.652,3.045-0.652,3.914,1.086c0.869,1.74-0.217,2.827-1.523,3.479l-3.911,2.176L223.489,296.535
	L223.489,296.535z M223.707,305.887l8.044-4.352c3.044-1.521,5-4.563,3.262-7.824c-1.089-2.176-2.827-3.045-5.22-2.609
	c1.089-1.521,1.307-3.043,0.438-4.566c-1.741-3.041-4.349-3.041-7.61-1.303l-7.61,4.131L223.707,305.887L223.707,305.887z
	 M220.009,290.232l3.479-1.741c1.304-0.869,2.61-1.084,3.479,0.437c0.869,1.521,0.217,2.607-1.087,3.262l-3.696,1.956
	L220.009,290.232L220.009,290.232z"/>
</svg>
