<?xml version="1.0" encoding="UTF-8"?>
<svg xmlns="http://www.w3.org/2000/svg" xmlns:xlink="http://www.w3.org/1999/xlink" width="505.14pt" height="580.61pt" viewBox="0 0 505.14 580.61" version="1.1">
<defs>
<clipPath id="clip1">
  <path d="M 0 0 L 505.140625 0 L 505.140625 580.609375 L 0 580.609375 Z M 0 0 "/>
</clipPath>
</defs>
<g id="surface1">
<g clip-path="url(#clip1)" clip-rule="nonzero">
<path style=" stroke:none;fill-rule:nonzero;fill:rgb(0%,31.799316%,56.898499%);fill-opacity:1;" d="M 501.710938 139.132813 C 475.492188 96.683594 438.703125 61.421875 395.328125 37.160156 C 351.859375 12.847656 302.496094 -0.00390625 252.570313 -0.00390625 C 202.644531 -0.00390625 153.277344 12.847656 109.808594 37.160156 C 66.433594 61.417969 29.652344 96.679688 3.433594 139.125 C 1.371094 142.371094 -0.738281 146.191406 0.25 150.414063 C 0.929688 153.320313 2.921875 155.738281 6.335938 157.8125 L 54.886719 187.226563 C 38.105469 218.636719 28.578125 254.503906 28.578125 292.597656 C 28.578125 363.851563 61.871094 427.339844 113.738281 468.363281 L 86.089844 508.570313 C 84.390625 510.933594 82.152344 514.507813 82.210938 518.425781 C 82.304688 524.972656 89.101563 529.691406 91.339844 531.242188 L 91.359375 531.257813 L 91.382813 531.273438 C 139.0625 563.546875 194.796875 580.609375 252.570313 580.609375 C 310.339844 580.609375 366.078125 563.546875 413.753906 531.273438 L 413.800781 531.242188 C 416.035156 529.691406 422.835938 524.972656 422.929688 518.425781 C 422.984375 514.507813 420.746094 510.933594 419.046875 508.570313 L 391.398438 468.367188 C 443.269531 427.339844 476.5625 363.851563 476.5625 292.597656 C 476.5625 254.503906 467.035156 218.636719 450.253906 187.226563 L 498.800781 157.8125 C 502.21875 155.738281 504.210938 153.320313 504.886719 150.414063 C 505.875 146.195313 503.769531 142.378906 501.710938 139.132813 "/>
</g>
<path style=" stroke:none;fill-rule:nonzero;fill:rgb(97.299194%,77.2995%,0.39978%);fill-opacity:1;" d="M 497.816406 141.566406 C 445.273438 56.472656 352.839844 4.585938 252.570313 4.585938 C 152.300781 4.585938 59.867188 56.472656 7.324219 141.566406 C 4.054688 146.703125 2.851563 150.328125 8.71875 153.886719 L 58.753906 184.203125 L 61.667969 180.121094 L 60.800781 180.121094 L 11.097656 149.960938 C 8.078125 148.136719 9.550781 146.613281 11.203125 144.011719 C 62.984375 60.15625 154.003906 9.175781 252.570313 9.175781 C 351.136719 9.175781 442.15625 60.15625 493.9375 144.011719 C 495.585938 146.613281 497.0625 148.136719 494.042969 149.960938 L 444.335938 180.121094 L 443.472656 180.121094 L 446.382813 184.203125 L 496.421875 153.886719 C 502.289063 150.328125 501.085938 146.703125 497.816406 141.566406 "/>
<path style=" stroke:none;fill-rule:nonzero;fill:rgb(97.299194%,77.2995%,0.39978%);fill-opacity:1;" d="M 386.6875 469.609375 L 382.785156 472.15625 L 411.578125 513.90625 C 412.242188 514.828125 413.765625 517.101563 413.75 518.296875 C 413.726563 519.910156 409.738281 522.882813 408.597656 523.679688 C 362.398438 554.953125 308.347656 571.433594 252.570313 571.433594 C 196.789063 571.433594 142.738281 554.953125 96.539063 523.679688 C 95.402344 522.882813 91.410156 519.910156 91.390625 518.296875 C 91.371094 517.101563 92.898438 514.828125 93.5625 513.90625 L 122.351563 472.15625 L 118.453125 469.609375 L 89.839844 511.222656 C 88.441406 513.15625 86.765625 515.878906 86.800781 518.359375 C 86.851563 522.144531 91.203125 525.558594 93.953125 527.472656 C 140.925781 559.265625 195.855469 576.019531 252.570313 576.019531 C 309.28125 576.019531 364.214844 559.265625 411.183594 527.472656 C 413.9375 525.558594 418.285156 522.144531 418.335938 518.359375 C 418.375 515.878906 416.695313 513.15625 415.296875 511.222656 "/>
<path style=" stroke:none;fill-rule:nonzero;fill:rgb(97.299194%,77.2995%,0.39978%);fill-opacity:1;" d="M 446.410156 138.394531 L 439.328125 130.242188 L 453.921875 124.636719 Z M 458.183594 115.460938 L 418.1875 129.796875 L 423.75 136.195313 L 432.679688 132.757813 L 443.066406 144.699219 L 438.542969 153.210938 L 444.25 159.777344 L 463.722656 121.839844 "/>
<path style=" stroke:none;fill-rule:nonzero;fill:rgb(97.299194%,77.2995%,0.39978%);fill-opacity:1;" d="M 141.332031 81.046875 L 148.535156 47.40625 L 145.710938 41.875 L 119.894531 55.027344 L 122.933594 61 L 139.367188 52.625 L 132.5 84.945313 L 135.773438 91.367188 L 164.433594 76.765625 L 161.402344 70.820313 "/>
<path style=" stroke:none;fill-rule:nonzero;fill:rgb(97.299194%,77.2995%,0.39978%);fill-opacity:1;" d="M 104.621094 94.726563 C 105.871094 97.414063 106.320313 99.769531 105.941406 101.773438 C 105.574219 103.785156 104.550781 105.4375 102.871094 106.746094 C 100.605469 108.515625 98.109375 109.125 95.382813 108.554688 C 92.652344 107.996094 89.753906 105.734375 86.667969 101.789063 C 83.765625 98.070313 82.382813 94.824219 82.527344 92.042969 C 82.664063 89.257813 83.898438 86.960938 86.210938 85.152344 C 87.882813 83.847656 89.667969 83.199219 91.570313 83.222656 C 93.476563 83.242188 95.246094 83.921875 96.875 85.253906 L 101.949219 78.890625 C 99.289063 76.945313 96.730469 75.859375 94.265625 75.640625 C 90.121094 75.246094 86.140625 76.542969 82.328125 79.519531 C 77.953125 82.9375 75.554688 87.128906 75.117188 92.089844 C 74.679688 97.0625 76.488281 102.140625 80.542969 107.335938 C 84.375 112.238281 88.738281 115.066406 93.617188 115.816406 C 98.488281 116.558594 103 115.3125 107.144531 112.078125 C 110.488281 109.464844 112.609375 106.472656 113.496094 103.125 C 114.378906 99.769531 113.957031 96.027344 112.234375 91.890625 "/>
<path style=" stroke:none;fill-rule:nonzero;fill:rgb(97.299194%,77.2995%,0.39978%);fill-opacity:1;" d="M 75.496094 116.890625 L 70.679688 112.238281 L 59.199219 124.125 L 52.460938 117.621094 L 65.761719 103.851563 L 60.941406 99.195313 L 42.085938 118.722656 L 70.5625 146.222656 L 76.117188 140.464844 L 64.015625 128.78125 "/>
<path style=" stroke:none;fill-rule:nonzero;fill:rgb(97.299194%,77.2995%,0.39978%);fill-opacity:1;" d="M 189.839844 60.199219 C 189.332031 61.191406 188.535156 61.960938 187.441406 62.472656 C 186.738281 62.832031 184.992188 63.375 182.207031 64.121094 L 175.0625 66.03125 L 172.328125 55.8125 L 178.558594 54.144531 C 182.0625 53.203125 184.402344 52.769531 185.550781 52.851563 C 186.699219 52.9375 187.660156 53.308594 188.433594 53.960938 C 189.199219 54.613281 189.746094 55.507813 190.054688 56.652344 C 190.414063 58.007813 190.34375 59.195313 189.839844 60.199219 M 168.253906 40.605469 L 172.6875 39.421875 C 176.320313 38.445313 178.527344 37.898438 179.320313 37.785156 C 180.644531 37.589844 181.730469 37.78125 182.589844 38.339844 C 183.4375 38.90625 184.011719 39.78125 184.332031 40.964844 C 184.664063 42.203125 184.558594 43.300781 184.003906 44.261719 C 183.449219 45.21875 182.527344 45.953125 181.253906 46.457031 C 180.546875 46.742188 178.6875 47.285156 175.679688 48.09375 L 170.617188 49.449219 Z M 194.703125 49.617188 C 193.019531 48.324219 190.910156 47.644531 188.40625 47.59375 C 189.855469 46.402344 190.863281 44.933594 191.433594 43.175781 C 191.992188 41.421875 192.03125 39.644531 191.550781 37.859375 C 191.109375 36.210938 190.320313 34.816406 189.179688 33.699219 C 188.039063 32.574219 186.78125 31.777344 185.394531 31.292969 C 184.003906 30.804688 182.535156 30.632813 180.984375 30.785156 C 179.425781 30.925781 177.132813 31.40625 174.105469 32.214844 L 158.820313 36.3125 L 169.0625 74.550781 L 182.078125 71.0625 C 186.992188 69.710938 190.078125 68.785156 191.324219 68.308594 C 193.320313 67.527344 194.882813 66.460938 196.019531 65.105469 C 197.152344 63.753906 197.90625 62.140625 198.277344 60.28125 C 198.644531 58.417969 198.59375 56.617188 198.128906 54.882813 C 197.535156 52.675781 196.398438 50.917969 194.703125 49.617188 "/>
<path style=" stroke:none;fill-rule:nonzero;fill:rgb(97.299194%,77.2995%,0.39978%);fill-opacity:1;" d="M 307.378906 52.785156 C 306.65625 55.910156 305.820313 57.882813 304.878906 58.703125 C 303.929688 59.535156 302.582031 59.746094 300.851563 59.347656 C 299.136719 58.949219 298.011719 57.960938 297.484375 56.386719 C 297.140625 55.339844 297.179688 53.703125 297.597656 51.472656 L 290.0625 50.621094 C 289.125 54.746094 289.445313 58.113281 291 60.714844 C 292.5625 63.324219 295.246094 65.058594 299.054688 65.941406 C 302.296875 66.691406 305.066406 66.617188 307.363281 65.710938 C 309.660156 64.816406 311.445313 63.320313 312.714844 61.253906 C 313.671875 59.667969 314.527344 57.273438 315.261719 54.082031 L 320.902344 29.664063 L 313.128906 27.871094 "/>
<path style=" stroke:none;fill-rule:nonzero;fill:rgb(97.299194%,77.2995%,0.39978%);fill-opacity:1;" d="M 418.714844 129.402344 L 422.207031 100.789063 L 443.535156 98.554688 L 435.308594 91.648438 L 411.636719 94.734375 L 422.9375 81.269531 L 416.8125 76.132813 L 391.367188 106.457031 L 397.488281 111.59375 L 405.179688 102.429688 L 414.402344 101.527344 L 410.792969 122.757813 "/>
<path style=" stroke:none;fill-rule:nonzero;fill:rgb(97.299194%,77.2995%,0.39978%);fill-opacity:1;" d="M 354.113281 62.019531 C 352.46875 66.304688 350.28125 69.144531 347.550781 70.558594 C 344.820313 71.976563 341.964844 72.105469 338.996094 70.964844 C 336.019531 69.820313 333.984375 67.808594 332.878906 64.902344 C 331.777344 62.003906 332.023438 58.457031 333.628906 54.273438 C 335.261719 50.015625 337.425781 47.199219 340.113281 45.816406 C 342.804688 44.429688 345.6875 44.320313 348.769531 45.503906 C 351.84375 46.683594 353.914063 48.671875 354.96875 51.46875 C 356.019531 54.269531 355.738281 57.78125 354.113281 62.019531 M 351.136719 39.101563 C 348.132813 37.941406 345.292969 37.40625 342.609375 37.503906 C 340.605469 37.5625 338.585938 38.0625 336.5625 38.992188 C 334.53125 39.929688 332.738281 41.183594 331.175781 42.738281 C 329.066406 44.859375 327.296875 47.804688 325.847656 51.574219 C 323.59375 57.449219 323.4375 62.691406 325.390625 67.289063 C 327.347656 71.886719 331.074219 75.242188 336.574219 77.351563 C 341.996094 79.433594 346.984375 79.410156 351.515625 77.289063 C 356.054688 75.164063 359.472656 71.125 361.761719 65.152344 C 364.074219 59.136719 364.238281 53.8125 362.265625 49.1875 C 360.292969 44.546875 356.589844 41.191406 351.136719 39.101563 "/>
<path style=" stroke:none;fill-rule:nonzero;fill:rgb(97.299194%,77.2995%,0.39978%);fill-opacity:1;" d="M 277.21875 41.953125 C 276.898438 46.53125 275.636719 49.890625 273.449219 52.035156 C 271.246094 54.195313 268.554688 55.148438 265.382813 54.929688 C 262.199219 54.703125 259.664063 53.371094 257.753906 50.921875 C 255.855469 48.46875 255.054688 45.003906 255.363281 40.535156 C 255.6875 35.984375 256.929688 32.660156 259.09375 30.550781 C 261.265625 28.4375 263.992188 27.492188 267.285156 27.71875 C 270.566406 27.949219 273.128906 29.246094 274.957031 31.609375 C 276.78125 33.984375 277.535156 37.429688 277.21875 41.953125 M 267.679688 20.902344 C 264.460938 20.679688 261.597656 20.992188 259.054688 21.867188 C 257.148438 22.515625 255.371094 23.578125 253.703125 25.0625 C 252.039063 26.550781 250.6875 28.28125 249.644531 30.21875 C 248.253906 32.867188 247.414063 36.199219 247.136719 40.226563 C 246.695313 46.507813 248.078125 51.5625 251.296875 55.394531 C 254.511719 59.214844 259.058594 61.332031 264.933594 61.742188 C 270.722656 62.144531 275.488281 60.671875 279.203125 57.316406 C 282.921875 53.957031 285.007813 49.09375 285.453125 42.714844 C 285.90625 36.285156 284.507813 31.140625 281.269531 27.296875 C 278.023438 23.433594 273.496094 21.308594 267.679688 20.902344 "/>
<path style=" stroke:none;fill-rule:nonzero;fill:rgb(97.299194%,77.2995%,0.39978%);fill-opacity:1;" d="M 400.28125 64.121094 L 377.597656 85.050781 L 383.046875 54.570313 L 375.457031 50.363281 L 368.644531 91.847656 L 376.109375 95.984375 L 407.699219 68.234375 "/>
<path style=" stroke:none;fill-rule:nonzero;fill:rgb(97.299194%,77.2995%,0.39978%);fill-opacity:1;" d="M 225.550781 38.316406 C 224.636719 38.757813 222.277344 39.203125 218.46875 39.671875 L 212.609375 40.390625 L 211.382813 30.429688 L 217.570313 29.671875 C 220.789063 29.273438 222.722656 29.082031 223.378906 29.085938 C 224.691406 29.144531 225.753906 29.535156 226.554688 30.265625 C 227.359375 30.992188 227.847656 32.007813 228.015625 33.335938 C 228.152344 34.515625 228 35.527344 227.566406 36.382813 C 227.125 37.234375 226.453125 37.882813 225.550781 38.316406 M 231.746094 46.808594 C 230.484375 45.746094 228.929688 44.820313 227.085938 44.027344 C 230.476563 43.109375 232.921875 41.574219 234.417969 39.445313 C 235.910156 37.316406 236.480469 34.765625 236.117188 31.824219 C 235.835938 29.496094 235.011719 27.507813 233.644531 25.835938 C 232.28125 24.175781 230.597656 23.109375 228.609375 22.640625 C 226.617188 22.171875 223.527344 22.183594 219.328125 22.699219 L 202.625 24.753906 L 207.453125 64.042969 L 215.390625 63.070313 L 213.378906 46.667969 L 214.976563 46.46875 C 216.808594 46.242188 218.152344 46.230469 219.027344 46.417969 C 219.910156 46.617188 220.769531 47.058594 221.617188 47.761719 C 222.46875 48.46875 224.09375 50.21875 226.507813 53.019531 L 233.296875 60.871094 L 242.78125 59.707031 L 237.039063 52.628906 C 234.765625 49.804688 233.011719 47.867188 231.746094 46.808594 "/>
<path style=" stroke:none;fill-rule:nonzero;fill:rgb(97.299194%,77.2995%,0.39978%);fill-opacity:1;" d="M 314.691406 533.867188 C 315.800781 537.734375 317.539063 540.410156 319.894531 541.894531 C 322.253906 543.378906 324.808594 543.726563 327.558594 542.933594 C 330.304688 542.144531 332.28125 540.511719 333.476563 538.019531 C 334.667969 535.535156 334.695313 532.316406 333.5625 528.351563 C 332.4375 524.441406 330.746094 521.769531 328.476563 520.332031 C 326.214844 518.894531 323.648438 518.585938 320.8125 519.398438 C 317.96875 520.21875 315.957031 521.847656 314.769531 524.300781 C 313.597656 526.75 313.5625 529.929688 314.691406 533.867188 M 307.652344 536.136719 C 306.652344 532.652344 306.335938 529.582031 306.703125 526.925781 C 306.980469 524.96875 307.589844 523.097656 308.539063 521.328125 C 309.492188 519.5625 310.664063 518.121094 312.078125 516.992188 C 313.945313 515.472656 316.269531 514.328125 319.054688 513.527344 C 324.089844 512.089844 328.554688 512.488281 332.476563 514.746094 C 336.394531 517 339.148438 520.910156 340.738281 526.46875 C 342.324219 531.988281 342.058594 536.726563 339.953125 540.707031 C 337.84375 544.675781 334.289063 547.382813 329.273438 548.820313 C 324.195313 550.273438 319.707031 549.886719 315.824219 547.652344 C 311.933594 545.410156 309.210938 541.566406 307.652344 536.136719 M 264.941406 559.730469 L 261.84375 524.332031 L 268.800781 523.722656 L 285.355469 546.09375 L 283.292969 522.460938 L 289.929688 521.875 L 293.03125 557.273438 L 285.851563 557.898438 L 269.566406 536.0625 L 271.585938 559.148438 Z M 224.195313 537.585938 L 229.480469 538.046875 C 232.902344 538.347656 235.0625 538.390625 235.945313 538.179688 C 236.816406 537.964844 237.53125 537.523438 238.078125 536.851563 C 238.617188 536.1875 238.941406 535.328125 239.035156 534.265625 C 239.140625 533.070313 238.902344 532.085938 238.335938 531.296875 C 237.761719 530.511719 236.902344 529.96875 235.757813 529.671875 C 235.1875 529.546875 233.449219 529.351563 230.550781 529.09375 L 224.980469 528.605469 Z M 215.253906 557.390625 L 218.351563 521.992188 L 233.398438 523.304688 C 237.183594 523.640625 239.898438 524.203125 241.558594 524.984375 C 243.214844 525.769531 244.496094 527.019531 245.382813 528.734375 C 246.269531 530.449219 246.617188 532.351563 246.433594 534.445313 C 246.203125 537.101563 245.226563 539.230469 243.519531 540.828125 C 241.808594 542.414063 239.375 543.304688 236.226563 543.476563 C 237.695313 544.519531 238.886719 545.621094 239.800781 546.789063 C 240.710938 547.953125 241.898438 549.984375 243.363281 552.886719 L 247.082031 560.175781 L 238.535156 559.425781 L 234.042969 551.269531 C 232.449219 548.351563 231.34375 546.511719 230.730469 545.734375 C 230.121094 544.964844 229.441406 544.414063 228.707031 544.074219 C 227.972656 543.746094 226.792969 543.507813 225.140625 543.363281 L 223.699219 543.238281 L 222.40625 558.015625 Z M 178.148438 532.757813 L 175.53125 541.886719 L 181.910156 543.714844 C 184.398438 544.429688 185.988281 544.816406 186.699219 544.863281 C 187.777344 544.972656 188.746094 544.753906 189.59375 544.226563 C 190.445313 543.683594 191.050781 542.804688 191.398438 541.601563 C 191.691406 540.574219 191.683594 539.632813 191.398438 538.777344 C 191.101563 537.917969 190.535156 537.183594 189.6875 536.589844 C 188.847656 535.996094 186.847656 535.25 183.714844 534.347656 Z M 182.042969 519.171875 L 179.777344 527.070313 L 184.296875 528.363281 C 186.984375 529.136719 188.667969 529.570313 189.339844 529.683594 C 190.558594 529.882813 191.601563 529.746094 192.472656 529.261719 C 193.34375 528.777344 193.933594 527.984375 194.25 526.882813 C 194.554688 525.824219 194.511719 524.882813 194.121094 524.058594 C 193.722656 523.226563 192.964844 522.582031 191.863281 522.113281 C 191.199219 521.847656 189.246094 521.234375 186.007813 520.308594 Z M 176.773438 511.507813 L 190.425781 515.417969 C 193.128906 516.199219 195.117188 516.890625 196.378906 517.503906 C 197.644531 518.105469 198.695313 518.910156 199.539063 519.929688 C 200.382813 520.945313 200.976563 522.140625 201.335938 523.53125 C 201.695313 524.921875 201.664063 526.355469 201.242188 527.828125 C 200.785156 529.421875 199.933594 530.773438 198.6875 531.867188 C 197.4375 532.953125 195.984375 533.617188 194.316406 533.863281 C 196.222656 535.0625 197.535156 536.558594 198.226563 538.335938 C 198.929688 540.121094 198.996094 542 198.429688 543.96875 C 197.984375 545.519531 197.191406 546.929688 196.046875 548.1875 C 194.902344 549.445313 193.578125 550.339844 192.082031 550.855469 C 190.582031 551.375 188.886719 551.472656 186.988281 551.148438 C 185.808594 550.945313 183.011719 550.230469 178.605469 549 L 166.976563 545.667969 L 176.773438 511.507813 "/>
<path style=" stroke:none;fill-rule:nonzero;fill:rgb(97.299194%,77.2995%,0.39978%);fill-opacity:1;" d="M 252.566406 156.816406 C 327.546875 156.816406 388.351563 217.617188 388.351563 292.597656 C 388.351563 367.578125 327.546875 428.382813 252.566406 428.382813 C 177.589844 428.382813 116.785156 367.578125 116.785156 292.597656 C 116.785156 217.617188 177.589844 156.816406 252.566406 156.816406 "/>
<path style=" stroke:none;fill-rule:nonzero;fill:rgb(0%,31.799316%,56.898499%);fill-opacity:1;" d="M 252.570313 239.046875 C 282.140625 239.046875 306.121094 263.027344 306.121094 292.597656 C 306.121094 322.167969 282.140625 346.148438 252.570313 346.148438 C 223 346.148438 199.019531 322.167969 199.019531 292.597656 C 199.019531 263.027344 223 239.046875 252.570313 239.046875 "/>
<path style=" stroke:none;fill-rule:nonzero;fill:rgb(0%,31.799316%,56.898499%);fill-opacity:1;" d="M 258.222656 225.898438 C 276.832031 227.460938 293.277344 236.632813 304.433594 250.292969 C 303.269531 241.320313 301.539063 232.433594 299.105469 223.710938 C 294.273438 206.375 286.824219 190.300781 276.484375 175.558594 L 274.046875 172.085938 C 267.074219 170.851563 259.894531 170.203125 252.566406 170.203125 C 199.359375 170.199219 154.085938 204.171875 137.222656 251.601563 C 150.589844 243.496094 164.902344 237.398438 180.089844 233.164063 C 204.886719 226.246094 232.492188 223.75 258.222656 225.898438 "/>
<path style=" stroke:none;fill-rule:nonzero;fill:rgb(0%,31.799316%,56.898499%);fill-opacity:1;" d="M 185.871094 286.941406 C 187.429688 268.335938 196.605469 251.890625 210.265625 240.734375 C 201.292969 241.898438 192.402344 243.625 183.683594 246.0625 C 166.34375 250.894531 150.269531 258.34375 135.53125 268.683594 L 132.058594 271.117188 C 130.820313 278.09375 130.175781 285.273438 130.175781 292.601563 C 130.171875 345.804688 164.140625 391.082031 211.570313 407.945313 C 203.46875 394.578125 197.371094 380.265625 193.132813 365.078125 C 186.21875 340.28125 183.71875 312.675781 185.871094 286.941406 "/>
<path style=" stroke:none;fill-rule:nonzero;fill:rgb(0%,31.799316%,56.898499%);fill-opacity:1;" d="M 246.914063 359.296875 C 228.304688 357.738281 211.863281 348.566406 200.703125 334.902344 C 201.867188 343.875 203.597656 352.761719 206.03125 361.484375 C 210.863281 378.824219 218.3125 394.898438 228.65625 409.640625 L 231.089844 413.109375 C 238.066406 414.347656 245.246094 414.992188 252.570313 414.992188 C 305.777344 414.996094 351.054688 381.023438 367.914063 333.597656 C 354.550781 341.703125 340.234375 347.800781 325.046875 352.035156 C 300.253906 358.949219 272.644531 361.445313 246.914063 359.296875 "/>
<path style=" stroke:none;fill-rule:nonzero;fill:rgb(0%,31.799316%,56.898499%);fill-opacity:1;" d="M 319.269531 298.253906 C 317.710938 316.863281 308.535156 333.308594 294.875 344.464844 C 303.847656 343.296875 312.734375 341.570313 321.457031 339.136719 C 338.792969 334.304688 354.867188 326.855469 369.609375 316.515625 L 373.082031 314.078125 C 374.316406 307.105469 374.964844 299.921875 374.964844 292.597656 C 374.96875 239.390625 340.996094 194.113281 293.566406 177.253906 C 301.671875 190.621094 307.769531 204.933594 312.003906 220.121094 C 318.921875 244.914063 321.417969 272.523438 319.269531 298.253906 "/>
<path style=" stroke:none;fill-rule:nonzero;fill:rgb(97.299194%,77.2995%,0.39978%);fill-opacity:1;" d="M 231.324219 267.023438 C 228.425781 267.023438 226.277344 266.417969 224.878906 265.21875 C 223.476563 264.019531 222.765625 262.207031 222.765625 259.773438 C 222.765625 257.242188 223.453125 255.390625 224.824219 254.226563 C 226.1875 253.070313 228.347656 252.480469 231.324219 252.480469 L 267.113281 252.480469 C 272.65625 252.480469 276.378906 253.121094 278.253906 254.359375 C 280.140625 255.609375 281.078125 257.78125 281.078125 260.867188 C 281.085938 261.816406 280.902344 262.765625 280.550781 263.695313 C 280.1875 264.640625 279.53125 265.484375 278.878906 266.425781 L 242.886719 318.015625 L 273.597656 318.339844 C 276.59375 318.375 278.789063 318.929688 280.226563 320.089844 C 281.648438 321.246094 282.375 323.050781 282.375 325.484375 C 282.375 327.976563 281.648438 329.8125 280.238281 330.96875 C 278.824219 332.132813 276.609375 332.714844 273.597656 332.714844 L 236.300781 332.714844 C 231.34375 332.714844 227.90625 332.066406 225.96875 330.78125 C 224.035156 329.503906 223.0625 327.269531 223.0625 324.105469 C 223.0625 323.066406 223.238281 322.078125 223.578125 321.167969 C 223.914063 320.265625 224.507813 319.414063 225.15625 318.453125 L 260.070313 267.023438 L 231.324219 267.023438 "/>
<path style=" stroke:none;fill-rule:nonzero;fill:rgb(88.198853%,2.398682%,7.499695%);fill-opacity:1;" d="M 113.730469 292.597656 C 113.730469 267.261719 120.523438 243.515625 132.378906 223.066406 L 132.378906 112.707031 C 114.222656 124.863281 98.011719 139.699219 84.304688 156.644531 L 84.304688 428.550781 C 98.011719 445.496094 114.222656 460.332031 132.378906 472.492188 L 132.378906 362.128906 C 120.523438 341.679688 113.730469 317.929688 113.730469 292.597656 "/>
<path style=" stroke:none;fill-rule:nonzero;fill:rgb(88.198853%,2.398682%,7.499695%);fill-opacity:1;" d="M 324.683594 173.9375 L 324.683594 88.589844 C 309.371094 83.175781 293.277344 79.4375 276.605469 77.59375 L 276.605469 155.839844 C 293.949219 158.867188 310.191406 165.109375 324.683594 173.9375 "/>
<path style=" stroke:none;fill-rule:nonzero;fill:rgb(88.198853%,2.398682%,7.499695%);fill-opacity:1;" d="M 228.53125 155.839844 L 228.53125 77.59375 C 211.863281 79.433594 195.765625 83.175781 180.457031 88.585938 L 180.457031 173.941406 C 194.949219 165.109375 211.1875 158.867188 228.53125 155.839844 "/>
<path style=" stroke:none;fill-rule:nonzero;fill:rgb(88.198853%,2.398682%,7.499695%);fill-opacity:1;" d="M 372.757813 112.707031 L 372.757813 223.066406 C 384.617188 243.515625 391.410156 267.261719 391.410156 292.597656 C 391.410156 317.929688 384.617188 341.679688 372.757813 362.132813 L 372.757813 472.488281 C 390.914063 460.332031 407.125 445.496094 420.835938 428.550781 L 420.835938 156.648438 C 407.125 139.703125 390.914063 124.867188 372.757813 112.707031 "/>
<path style=" stroke:none;fill-rule:nonzero;fill:rgb(88.198853%,2.398682%,7.499695%);fill-opacity:1;" d="M 180.457031 411.257813 L 180.457031 496.609375 C 195.765625 502.027344 211.863281 505.761719 228.53125 507.605469 L 228.53125 429.359375 C 211.1875 426.328125 194.949219 420.085938 180.457031 411.257813 "/>
<path style=" stroke:none;fill-rule:nonzero;fill:rgb(88.198853%,2.398682%,7.499695%);fill-opacity:1;" d="M 276.605469 429.359375 L 276.605469 507.605469 C 293.277344 505.757813 309.371094 502.019531 324.683594 496.609375 L 324.683594 411.257813 C 310.191406 420.085938 293.949219 426.328125 276.605469 429.359375 "/>
<path style=" stroke:none;fill-rule:nonzero;fill:rgb(100%,100%,100%);fill-opacity:1;" d="M 180.457031 173.941406 L 180.457031 88.585938 C 163.339844 94.640625 147.210938 102.777344 132.378906 112.707031 L 132.378906 223.066406 C 144.046875 202.945313 160.617188 186.027344 180.457031 173.941406 "/>
<path style=" stroke:none;fill-rule:nonzero;fill:rgb(100%,100%,100%);fill-opacity:1;" d="M 132.378906 362.128906 L 132.378906 472.488281 C 147.210938 482.421875 163.339844 490.558594 180.453125 496.609375 L 180.453125 411.257813 C 160.617188 399.171875 144.046875 382.246094 132.378906 362.128906 "/>
<path style=" stroke:none;fill-rule:nonzero;fill:rgb(100%,100%,100%);fill-opacity:1;" d="M 252.570313 431.4375 C 244.371094 431.4375 236.339844 430.722656 228.53125 429.359375 L 228.53125 507.605469 C 236.425781 508.476563 244.441406 508.945313 252.566406 508.945313 C 260.695313 508.945313 268.714844 508.476563 276.605469 507.605469 L 276.605469 429.359375 C 268.796875 430.722656 260.765625 431.4375 252.570313 431.4375 "/>
<path style=" stroke:none;fill-rule:nonzero;fill:rgb(100%,100%,100%);fill-opacity:1;" d="M 252.570313 153.757813 C 260.765625 153.757813 268.796875 154.472656 276.605469 155.839844 L 276.605469 77.59375 C 268.714844 76.71875 260.695313 76.253906 252.566406 76.253906 C 244.441406 76.253906 236.425781 76.71875 228.53125 77.589844 L 228.53125 155.839844 C 236.339844 154.476563 244.371094 153.757813 252.570313 153.757813 "/>
<path style=" stroke:none;fill-rule:nonzero;fill:rgb(100%,100%,100%);fill-opacity:1;" d="M 324.683594 411.257813 L 324.683594 496.609375 C 341.796875 490.558594 357.925781 482.417969 372.757813 472.488281 L 372.757813 362.132813 C 361.09375 382.25 344.523438 399.171875 324.683594 411.257813 "/>
<path style=" stroke:none;fill-rule:nonzero;fill:rgb(100%,100%,100%);fill-opacity:1;" d="M 372.757813 223.066406 L 372.757813 112.707031 C 357.925781 102.777344 341.796875 94.640625 324.683594 88.585938 L 324.683594 173.9375 C 344.523438 186.023438 361.09375 202.945313 372.757813 223.066406 "/>
<path style=" stroke:none;fill-rule:nonzero;fill:rgb(100%,100%,100%);fill-opacity:1;" d="M 420.835938 156.648438 L 420.835938 428.550781 C 450.894531 391.394531 468.910156 344.097656 468.910156 292.597656 C 468.910156 241.097656 450.894531 193.800781 420.835938 156.648438 "/>
<path style=" stroke:none;fill-rule:nonzero;fill:rgb(100%,100%,100%);fill-opacity:1;" d="M 36.226563 292.597656 C 36.226563 344.101563 54.246094 391.398438 84.304688 428.550781 L 84.304688 156.644531 C 54.246094 193.800781 36.226563 241.097656 36.226563 292.597656 "/>
</g>
</svg>
